<svg width="162" height="41" viewBox="0 0 162 41" fill="none" xmlns="http://www.w3.org/2000/svg">
<g clip-path="url(#clip0_323_25973)">
<path d="M28.5267 0.5H12.4733C5.86064 0.5 0.5 5.86064 0.5 12.4733V28.5267C0.5 35.1394 5.86064 40.5 12.4733 40.5H28.5267C35.1394 40.5 40.5 35.1394 40.5 28.5267V12.4733C40.5 5.86064 35.1394 0.5 28.5267 0.5Z" fill="white"/>
<path d="M20.4999 33.4411C28.0803 33.4411 34.2254 27.6471 34.2254 20.4999C34.2254 13.3527 28.0803 7.55872 20.4999 7.55872C12.9195 7.55872 6.77441 13.3527 6.77441 20.4999C6.77441 27.6471 12.9195 33.4411 20.4999 33.4411Z" fill="#004E2B"/>
<path d="M20.6182 28.3427C24.8496 28.3427 28.2798 24.8371 28.2798 20.5127C28.2798 16.1883 24.8496 12.6827 20.6182 12.6827C16.3868 12.6827 12.9565 16.1883 12.9565 20.5127C12.9565 24.8371 16.3868 28.3427 20.6182 28.3427Z" fill="#00DD39"/>
<rect x="12.8944" y="12.8943" width="15.2109" height="15.1351" rx="7.56757" stroke="white" stroke-width="0.475342" stroke-dasharray="0.95 0.95"/>
<path d="M19.3115 16.8514H19.5997C20.1376 16.8514 20.4641 17.8264 20.4641 19.4226V22.4223H20.176C19.6459 22.4223 19.3115 21.4159 19.3115 19.8512V16.8514Z" fill="white"/>
<path d="M19.8877 22.2673L19.9805 21.97C20.1539 21.4148 20.842 21.2599 21.7962 21.5579L23.5895 22.1178L23.4966 22.4152C23.3258 22.9622 22.6164 23.1194 21.681 22.8273L19.8877 22.2673Z" fill="white"/>
</g>
<path d="M57.9325 22.122H52.1725V27H49.1125V14.4H52.1725V19.368H57.9325V14.4H60.9925V27H57.9325V22.122ZM63.8254 14.4H66.5614L70.6834 20.376L74.8414 14.4H77.5054V27H74.5354V23.004C74.5354 21.516 74.5834 20.25 74.6794 19.206L71.2414 23.94H70.0534L66.6694 19.26C66.7654 20.256 66.8134 21.504 66.8134 23.004V27H63.8254V14.4ZM92.2366 27.18C90.9046 27.18 89.7046 26.904 88.6366 26.352C87.5686 25.8 86.7286 25.032 86.1166 24.048C85.5046 23.052 85.1986 21.918 85.1986 20.646C85.1986 19.41 85.5106 18.3 86.1346 17.316C86.7586 16.32 87.6106 15.546 88.6906 14.994C89.7826 14.43 90.9886 14.148 92.3086 14.148C93.3046 14.148 94.2646 14.334 95.1886 14.706C96.1246 15.066 96.8866 15.546 97.4746 16.146L95.6566 18.396C94.6606 17.448 93.5146 16.974 92.2186 16.974C91.5346 16.974 90.8926 17.124 90.2926 17.424C89.7046 17.724 89.2306 18.156 88.8706 18.72C88.5226 19.284 88.3486 19.938 88.3486 20.682C88.3486 21.438 88.5286 22.098 88.8886 22.662C89.2606 23.214 89.7646 23.64 90.4006 23.94C91.0366 24.228 91.7446 24.372 92.5246 24.372C93.7486 24.372 94.8946 23.898 95.9626 22.95L97.4206 25.308C96.9046 25.824 96.1666 26.268 95.2066 26.64C94.2466 27 93.2566 27.18 92.2366 27.18ZM99.1398 14.4H102.2V24.3H108.824V27H99.1398V14.4ZM116.619 27.18C115.263 27.18 114.045 26.898 112.965 26.334C111.885 25.77 111.039 24.99 110.427 23.994C109.815 22.998 109.509 21.882 109.509 20.646C109.509 19.422 109.815 18.312 110.427 17.316C111.039 16.32 111.885 15.54 112.965 14.976C114.045 14.4 115.263 14.112 116.619 14.112C117.975 14.112 119.187 14.4 120.255 14.976C121.335 15.54 122.181 16.32 122.793 17.316C123.405 18.312 123.711 19.422 123.711 20.646C123.711 21.882 123.405 22.998 122.793 23.994C122.193 24.99 121.353 25.77 120.273 26.334C119.193 26.898 117.975 27.18 116.619 27.18ZM116.619 24.3C117.387 24.3 118.071 24.144 118.671 23.832C119.271 23.508 119.739 23.07 120.075 22.518C120.423 21.966 120.597 21.342 120.597 20.646C120.597 19.962 120.423 19.344 120.075 18.792C119.739 18.228 119.265 17.79 118.653 17.478C118.053 17.154 117.375 16.992 116.619 16.992C115.851 16.992 115.161 17.154 114.549 17.478C113.949 17.79 113.481 18.222 113.145 18.774C112.809 19.326 112.641 19.95 112.641 20.646C112.641 21.342 112.809 21.966 113.145 22.518C113.481 23.07 113.949 23.508 114.549 23.832C115.161 24.144 115.851 24.3 116.619 24.3ZM131.981 27.18C130.649 27.18 129.449 26.904 128.381 26.352C127.313 25.8 126.473 25.032 125.861 24.048C125.249 23.052 124.943 21.918 124.943 20.646C124.943 19.41 125.255 18.3 125.879 17.316C126.503 16.32 127.355 15.546 128.435 14.994C129.527 14.43 130.733 14.148 132.053 14.148C133.049 14.148 134.009 14.334 134.933 14.706C135.869 15.066 136.631 15.546 137.219 16.146L135.401 18.396C134.405 17.448 133.259 16.974 131.963 16.974C131.279 16.974 130.637 17.124 130.037 17.424C129.449 17.724 128.975 18.156 128.615 18.72C128.267 19.284 128.093 19.938 128.093 20.682C128.093 21.438 128.273 22.098 128.633 22.662C129.005 23.214 129.509 23.64 130.145 23.94C130.781 24.228 131.489 24.372 132.269 24.372C133.493 24.372 134.639 23.898 135.707 22.95L137.165 25.308C136.649 25.824 135.911 26.268 134.951 26.64C133.991 27 133.001 27.18 131.981 27.18ZM138.884 14.4H141.944V19.494L147.614 14.4H151.358L145.562 19.566L151.556 27H147.92L143.528 21.384L141.944 22.788V27H138.884V14.4ZM153.036 17.442H155.772L155.826 19.062C156.21 18.51 156.684 18.072 157.248 17.748C157.812 17.412 158.4 17.244 159.012 17.244C159.636 17.244 160.176 17.352 160.632 17.568L159.84 20.7C159.66 20.592 159.414 20.502 159.102 20.43C158.79 20.346 158.484 20.304 158.184 20.304C157.5 20.304 156.954 20.514 156.546 20.934C156.138 21.342 155.934 21.84 155.934 22.428V27H153.036V17.442Z" fill="white"/>
<defs>
<clipPath id="clip0_323_25973">
<rect width="40" height="40" fill="white" transform="translate(0.5 0.5)"/>
</clipPath>
</defs>
</svg>
