<svg width="150" height="41" viewBox="0 0 150 41" fill="none" xmlns="http://www.w3.org/2000/svg">
<g clip-path="url(#clip0_321_27494)">
<path d="M28.5267 0.5H12.4733C5.86064 0.5 0.5 5.86064 0.5 12.4733V28.5267C0.5 35.1394 5.86064 40.5 12.4733 40.5H28.5267C35.1394 40.5 40.5 35.1394 40.5 28.5267V12.4733C40.5 5.86064 35.1394 0.5 28.5267 0.5Z" fill="#004E2B"/>
<path d="M20.5 33.5C28.232 33.5 34.5 27.6797 34.5 20.5C34.5 13.3203 28.232 7.5 20.5 7.5C12.768 7.5 6.5 13.3203 6.5 20.5C6.5 27.6797 12.768 33.5 20.5 33.5Z" fill="white"/>
<path d="M20.5 28C24.9183 28 28.5 24.6421 28.5 20.5C28.5 16.3579 24.9183 13 20.5 13C16.0817 13 12.5 16.3579 12.5 20.5C12.5 24.6421 16.0817 28 20.5 28Z" fill="#00DD39"/>
<rect x="12.7377" y="13.2377" width="15.5247" height="14.5247" rx="7.26233" stroke="#004E2B" stroke-width="0.475342" stroke-dasharray="0.95 0.95"/>
<path d="M19.1543 17.1948H19.4424C19.9804 17.1948 20.3069 18.1698 20.3069 19.766V22.7657H20.0187C19.4887 22.7657 19.1543 21.7593 19.1543 20.1945V17.1948Z" fill="#004E2B"/>
<path d="M19.7305 22.6107L19.8233 22.3134C19.9967 21.7582 20.6847 21.6033 21.639 21.9013L23.4322 22.4612L23.3394 22.7586C23.1686 23.3055 22.4592 23.4628 21.5237 23.1707L19.7305 22.6107Z" fill="#004E2B"/>
</g>
<path d="M57.933 22.122H52.173V27H49.113V14.4H52.173V19.368H57.933V14.4H60.993V27H57.933V22.122ZM63.8259 14.4H66.5619L70.6839 20.376L74.8419 14.4H77.5059V27H74.5359V23.004C74.5359 21.516 74.5839 20.25 74.6799 19.206L71.2419 23.94H70.0539L66.6699 19.26C66.7659 20.256 66.8139 21.504 66.8139 23.004V27H63.8259V14.4ZM92.237 27.18C90.905 27.18 89.705 26.904 88.637 26.352C87.569 25.8 86.729 25.032 86.117 24.048C85.505 23.052 85.199 21.918 85.199 20.646C85.199 19.41 85.511 18.3 86.135 17.316C86.759 16.32 87.611 15.546 88.691 14.994C89.783 14.43 90.989 14.148 92.309 14.148C93.305 14.148 94.265 14.334 95.189 14.706C96.125 15.066 96.887 15.546 97.475 16.146L95.657 18.396C94.661 17.448 93.515 16.974 92.219 16.974C91.535 16.974 90.893 17.124 90.293 17.424C89.705 17.724 89.231 18.156 88.871 18.72C88.523 19.284 88.349 19.938 88.349 20.682C88.349 21.438 88.529 22.098 88.889 22.662C89.261 23.214 89.765 23.64 90.401 23.94C91.037 24.228 91.745 24.372 92.525 24.372C93.749 24.372 94.895 23.898 95.963 22.95L97.421 25.308C96.905 25.824 96.167 26.268 95.207 26.64C94.247 27 93.257 27.18 92.237 27.18ZM99.2303 13.68H102.128V27H99.2303V13.68ZM109.731 27.18C108.627 27.18 107.637 26.97 106.761 26.55C105.885 26.118 105.201 25.524 104.709 24.768C104.229 24.012 103.989 23.16 103.989 22.212C103.989 21.264 104.229 20.412 104.709 19.656C105.201 18.9 105.885 18.312 106.761 17.892C107.637 17.46 108.627 17.244 109.731 17.244C110.823 17.244 111.801 17.46 112.665 17.892C113.529 18.312 114.207 18.9 114.699 19.656C115.191 20.412 115.437 21.264 115.437 22.212C115.437 23.16 115.191 24.012 114.699 24.768C114.207 25.524 113.529 26.118 112.665 26.55C111.801 26.97 110.823 27.18 109.731 27.18ZM109.731 24.696C110.259 24.696 110.733 24.588 111.153 24.372C111.585 24.156 111.921 23.862 112.161 23.49C112.401 23.106 112.515 22.68 112.503 22.212C112.515 21.732 112.401 21.306 112.161 20.934C111.921 20.55 111.585 20.25 111.153 20.034C110.733 19.818 110.259 19.71 109.731 19.71C109.203 19.71 108.723 19.818 108.291 20.034C107.871 20.238 107.535 20.532 107.283 20.916C107.031 21.288 106.905 21.708 106.905 22.176C106.905 22.908 107.169 23.514 107.697 23.994C108.237 24.462 108.915 24.696 109.731 24.696ZM122.222 27.18C121.19 27.18 120.26 26.964 119.432 26.532C118.604 26.1 117.956 25.512 117.488 24.768C117.02 24.012 116.786 23.16 116.786 22.212C116.786 21.276 117.014 20.43 117.47 19.674C117.938 18.918 118.58 18.324 119.396 17.892C120.212 17.46 121.124 17.244 122.132 17.244C123.092 17.244 123.974 17.394 124.778 17.694C125.594 17.982 126.254 18.39 126.758 18.918L125.174 20.898C124.838 20.562 124.418 20.286 123.914 20.07C123.422 19.854 122.912 19.746 122.384 19.746C121.568 19.746 120.908 19.98 120.404 20.448C119.912 20.904 119.666 21.492 119.666 22.212C119.666 22.92 119.918 23.508 120.422 23.976C120.938 24.432 121.592 24.66 122.384 24.66C123.488 24.66 124.424 24.33 125.192 23.67L126.758 25.632C126.194 26.112 125.522 26.49 124.742 26.766C123.962 27.042 123.122 27.18 122.222 27.18ZM128.533 13.68H131.341V21.258L135.571 17.442H139.387L134.653 21.456L139.279 27H135.877L132.709 23.112L131.341 24.264V27H128.533V13.68ZM140.943 17.442H143.679L143.733 19.062C144.117 18.51 144.591 18.072 145.155 17.748C145.719 17.412 146.307 17.244 146.919 17.244C147.543 17.244 148.083 17.352 148.539 17.568L147.747 20.7C147.567 20.592 147.321 20.502 147.009 20.43C146.697 20.346 146.391 20.304 146.091 20.304C145.407 20.304 144.861 20.514 144.453 20.934C144.045 21.342 143.841 21.84 143.841 22.428V27H140.943V17.442Z" fill="#004E2B"/>
<defs>
<clipPath id="clip0_321_27494">
<rect width="40" height="40" fill="white" transform="translate(0.5 0.5)"/>
</clipPath>
</defs>
</svg>
