<svg width="119" height="32" viewBox="0 0 119 32" fill="none" xmlns="http://www.w3.org/2000/svg">
<g clip-path="url(#clip0_323_26474)">
<path d="M22.4271 -0.00390625H9.58112C4.28961 -0.00390625 0 4.28571 0 9.57722V22.4232C0 27.7147 4.28961 32.0043 9.58112 32.0043H22.4271C27.7186 32.0043 32.0082 27.7147 32.0082 22.4232V9.57722C32.0082 4.28571 27.7186 -0.00390625 22.4271 -0.00390625Z" fill="white"/>
<path d="M16.0046 26.4025C22.1918 26.4025 27.2075 21.7451 27.2075 15.9998C27.2075 10.2546 22.1918 5.59717 16.0046 5.59717C9.81745 5.59717 4.80176 10.2546 4.80176 15.9998C4.80176 21.7451 9.81745 26.4025 16.0046 26.4025Z" fill="#004E2B"/>
<path d="M16.0047 22.0011C19.5402 22.0011 22.4063 19.3141 22.4063 15.9996C22.4063 12.685 19.5402 9.99805 16.0047 9.99805C12.4691 9.99805 9.60303 12.685 9.60303 15.9996C9.60303 19.3141 12.4691 22.0011 16.0047 22.0011Z" fill="#00DD39"/>
<rect x="9.79321" y="10.1882" width="12.4229" height="11.6227" rx="5.81135" stroke="white" stroke-width="0.380371" stroke-dasharray="0.76 0.76"/>
<path d="M14.9272 13.355H15.1578C15.5883 13.355 15.8496 14.1352 15.8496 15.4125V17.8129H15.619C15.1948 17.8129 14.9272 17.0075 14.9272 15.7554V13.355Z" fill="white"/>
<path d="M15.3882 17.689L15.4625 17.451C15.6012 17.0068 16.1518 16.8828 16.9154 17.1213L18.3504 17.5693L18.2761 17.8073C18.1394 18.245 17.5717 18.3708 16.8232 18.137L15.3882 17.689Z" fill="white"/>
</g>
<path d="M45.9582 17.5966H41.349V21.5H38.9003V11.4174H41.349V15.3928H45.9582V11.4174H48.4068V21.5H45.9582V17.5966ZM50.6737 11.4174H52.863L56.1615 16.1994L59.4887 11.4174H61.6205V21.5H59.2439V18.3024C59.2439 17.1117 59.2823 16.0986 59.3591 15.2632L56.608 19.0514H55.6574L52.9495 15.3064C53.0263 16.1034 53.0647 17.1021 53.0647 18.3024V21.5H50.6737V11.4174ZM73.4084 21.644C72.3426 21.644 71.3823 21.4232 70.5277 20.9815C69.6731 20.5398 69.0009 19.9252 68.5112 19.1378C68.0215 18.3408 67.7766 17.4334 67.7766 16.4155C67.7766 15.4264 68.0263 14.5382 68.5256 13.7508C69.0249 12.9538 69.7067 12.3345 70.5709 11.8927C71.4447 11.4414 72.4098 11.2158 73.4661 11.2158C74.2631 11.2158 75.0313 11.3646 75.7706 11.6623C76.5196 11.9504 77.1294 12.3345 77.5999 12.8146L76.1451 14.615C75.3481 13.8564 74.4311 13.4771 73.394 13.4771C72.8467 13.4771 72.333 13.5972 71.8528 13.8372C71.3823 14.0773 71.003 14.423 70.7149 14.8743C70.4365 15.3256 70.2972 15.849 70.2972 16.4443C70.2972 17.0493 70.4413 17.5774 70.7294 18.0287C71.027 18.4704 71.4303 18.8113 71.9393 19.0514C72.4482 19.2818 73.0147 19.3971 73.6389 19.3971C74.6183 19.3971 75.5354 19.0178 76.39 18.2592L77.5567 20.1461C77.1438 20.559 76.5532 20.9142 75.785 21.2119C75.0168 21.5 74.2246 21.644 73.4084 21.644ZM79.0045 10.8413H81.3235V21.5H79.0045V10.8413ZM87.4074 21.644C86.5239 21.644 85.7317 21.476 85.0308 21.1399C84.3298 20.7942 83.7824 20.3189 83.3887 19.7139C83.0046 19.109 82.8126 18.4272 82.8126 17.6686C82.8126 16.91 83.0046 16.2282 83.3887 15.6233C83.7824 15.0183 84.3298 14.5478 85.0308 14.2117C85.7317 13.866 86.5239 13.6932 87.4074 13.6932C88.2812 13.6932 89.0638 13.866 89.7552 14.2117C90.4465 14.5478 90.9891 15.0183 91.3828 15.6233C91.7765 16.2282 91.9733 16.91 91.9733 17.6686C91.9733 18.4272 91.7765 19.109 91.3828 19.7139C90.9891 20.3189 90.4465 20.7942 89.7552 21.1399C89.0638 21.476 88.2812 21.644 87.4074 21.644ZM87.4074 19.6563C87.8299 19.6563 88.2092 19.5699 88.5453 19.3971C88.8909 19.2242 89.1598 18.989 89.3519 18.6913C89.5439 18.384 89.6351 18.0431 89.6255 17.6686C89.6351 17.2845 89.5439 16.9436 89.3519 16.646C89.1598 16.3387 88.8909 16.0986 88.5453 15.9258C88.2092 15.7529 87.8299 15.6665 87.4074 15.6665C86.9849 15.6665 86.6008 15.7529 86.2551 15.9258C85.919 16.089 85.6501 16.3243 85.4485 16.6316C85.2468 16.9292 85.146 17.2653 85.146 17.6398C85.146 18.2256 85.3572 18.7105 85.7797 19.0946C86.2119 19.4691 86.7544 19.6563 87.4074 19.6563ZM97.4026 21.644C96.5768 21.644 95.8326 21.4712 95.1701 21.1255C94.5075 20.7798 93.9889 20.3093 93.6145 19.7139C93.24 19.109 93.0527 18.4272 93.0527 17.6686C93.0527 16.9196 93.2352 16.2427 93.6 15.6377C93.9745 15.0327 94.4883 14.5574 95.1412 14.2117C95.7942 13.866 96.524 13.6932 97.3306 13.6932C98.0988 13.6932 98.8046 13.8132 99.4479 14.0533C100.101 14.2838 100.629 14.6102 101.032 15.0327L99.7648 16.6171C99.496 16.3483 99.1599 16.1274 98.7566 15.9546C98.3629 15.7817 97.9548 15.6953 97.5323 15.6953C96.8793 15.6953 96.3512 15.8826 95.9479 16.2571C95.5541 16.6219 95.3573 17.0925 95.3573 17.6686C95.3573 18.2352 95.559 18.7057 95.9623 19.0802C96.3752 19.4451 96.8985 19.6275 97.5323 19.6275C98.4157 19.6275 99.1647 19.3635 99.7792 18.8353L101.032 20.4053C100.581 20.7894 100.043 21.0919 99.4191 21.3128C98.795 21.5336 98.1228 21.644 97.4026 21.644ZM102.453 10.8413H104.7V16.9052L108.085 13.8516H111.138L107.35 17.0637L111.052 21.5H108.329L105.794 18.3888L104.7 19.3106V21.5H102.453V10.8413ZM112.383 13.8516H114.573L114.616 15.148C114.923 14.7063 115.303 14.3558 115.754 14.0965C116.205 13.8276 116.676 13.6932 117.165 13.6932C117.665 13.6932 118.097 13.7796 118.462 13.9525L117.828 16.4587C117.684 16.3723 117.487 16.3003 117.237 16.2427C116.988 16.1754 116.743 16.1418 116.503 16.1418C115.955 16.1418 115.519 16.3099 115.192 16.646C114.866 16.9724 114.702 17.3709 114.702 17.8415V21.5H112.383V13.8516Z" fill="white"/>
<defs>
<clipPath id="clip0_323_26474">
<rect width="32.0082" height="32.0082" fill="white" transform="translate(0 -0.00390625)"/>
</clipPath>
</defs>
</svg>
