<svg width="119" height="32" viewBox="0 0 119 32" fill="none" xmlns="http://www.w3.org/2000/svg">
<g clip-path="url(#clip0_321_28302)">
<path d="M22.4271 -0.00390625H9.58112C4.28961 -0.00390625 0 4.28571 0 9.57722V22.4232C0 27.7147 4.28961 32.0043 9.58112 32.0043H22.4271C27.7186 32.0043 32.0082 27.7147 32.0082 22.4232V9.57722C32.0082 4.28571 27.7186 -0.00390625 22.4271 -0.00390625Z" fill="#004E2B"/>
<path d="M16.0037 26.4025C22.1908 26.4025 27.2065 21.7451 27.2065 15.9998C27.2065 10.2546 22.1908 5.59717 16.0037 5.59717C9.81647 5.59717 4.80078 10.2546 4.80078 15.9998C4.80078 21.7451 9.81647 26.4025 16.0037 26.4025Z" fill="white"/>
<path d="M16.0032 22.0011C19.5387 22.0011 22.4048 19.3141 22.4048 15.9996C22.4048 12.685 19.5387 9.99805 16.0032 9.99805C12.4677 9.99805 9.60156 12.685 9.60156 15.9996C9.60156 19.3141 12.4677 22.0011 16.0032 22.0011Z" fill="#00DD39"/>
<rect x="9.79175" y="10.1882" width="12.4229" height="11.6227" rx="5.81135" stroke="#004E2B" stroke-width="0.380371" stroke-dasharray="0.76 0.76"/>
<path d="M14.9258 13.355H15.1564C15.5868 13.355 15.8481 14.1352 15.8481 15.4125V17.8129H15.6175C15.1934 17.8129 14.9258 17.0075 14.9258 15.7554V13.355Z" fill="#004E2B"/>
<path d="M15.3867 17.689L15.461 17.451C15.5997 17.0068 16.1503 16.8828 16.9139 17.1213L18.3489 17.5693L18.2746 17.8073C18.1379 18.245 17.5702 18.3708 16.8217 18.137L15.3867 17.689Z" fill="#004E2B"/>
</g>
<path d="M45.9586 17.5966H41.3495V21.5H38.9008V11.4174H41.3495V15.3928H45.9586V11.4174H48.4073V21.5H45.9586V17.5966ZM50.6742 11.4174H52.8635L56.162 16.1994L59.4892 11.4174H61.621V21.5H59.2444V18.3024C59.2444 17.1117 59.2828 16.0986 59.3596 15.2632L56.6085 19.0514H55.6578L52.9499 15.3064C53.0268 16.1034 53.0652 17.1021 53.0652 18.3024V21.5H50.6742V11.4174ZM73.4089 21.644C72.3431 21.644 71.3828 21.4232 70.5282 20.9815C69.6736 20.5398 69.0014 19.9252 68.5117 19.1378C68.0219 18.3408 67.7771 17.4334 67.7771 16.4155C67.7771 15.4264 68.0267 14.5382 68.5261 13.7508C69.0254 12.9538 69.7072 12.3345 70.5714 11.8927C71.4452 11.4414 72.4103 11.2158 73.4665 11.2158C74.2635 11.2158 75.0317 11.3646 75.7711 11.6623C76.5201 11.9504 77.1299 12.3345 77.6004 12.8146L76.1456 14.615C75.3486 13.8564 74.4316 13.4771 73.3945 13.4771C72.8472 13.4771 72.3335 13.5972 71.8533 13.8372C71.3828 14.0773 71.0035 14.423 70.7154 14.8743C70.437 15.3256 70.2977 15.849 70.2977 16.4443C70.2977 17.0493 70.4418 17.5774 70.7298 18.0287C71.0275 18.4704 71.4308 18.8113 71.9397 19.0514C72.4487 19.2818 73.0152 19.3971 73.6394 19.3971C74.6188 19.3971 75.5359 19.0178 76.3905 18.2592L77.5572 20.1461C77.1443 20.559 76.5537 20.9142 75.7855 21.2119C75.0173 21.5 74.2251 21.644 73.4089 21.644ZM79.005 10.8413H81.324V21.5H79.005V10.8413ZM87.4079 21.644C86.5244 21.644 85.7322 21.476 85.0312 21.1399C84.3303 20.7942 83.7829 20.3189 83.3892 19.7139C83.0051 19.109 82.8131 18.4272 82.8131 17.6686C82.8131 16.91 83.0051 16.2282 83.3892 15.6233C83.7829 15.0183 84.3303 14.5478 85.0312 14.2117C85.7322 13.866 86.5244 13.6932 87.4079 13.6932C88.2817 13.6932 89.0643 13.866 89.7557 14.2117C90.447 14.5478 90.9896 15.0183 91.3833 15.6233C91.777 16.2282 91.9738 16.91 91.9738 17.6686C91.9738 18.4272 91.777 19.109 91.3833 19.7139C90.9896 20.3189 90.447 20.7942 89.7557 21.1399C89.0643 21.476 88.2817 21.644 87.4079 21.644ZM87.4079 19.6563C87.8304 19.6563 88.2097 19.5699 88.5457 19.3971C88.8914 19.2242 89.1603 18.989 89.3523 18.6913C89.5444 18.384 89.6356 18.0431 89.626 17.6686C89.6356 17.2845 89.5444 16.9436 89.3523 16.646C89.1603 16.3387 88.8914 16.0986 88.5457 15.9258C88.2097 15.7529 87.8304 15.6665 87.4079 15.6665C86.9853 15.6665 86.6012 15.7529 86.2556 15.9258C85.9195 16.089 85.6506 16.3243 85.4489 16.6316C85.2473 16.9292 85.1465 17.2653 85.1465 17.6398C85.1465 18.2256 85.3577 18.7105 85.7802 19.0946C86.2123 19.4691 86.7549 19.6563 87.4079 19.6563ZM97.4031 21.644C96.5773 21.644 95.8331 21.4712 95.1705 21.1255C94.508 20.7798 93.9894 20.3093 93.6149 19.7139C93.2404 19.109 93.0532 18.4272 93.0532 17.6686C93.0532 16.9196 93.2356 16.2427 93.6005 15.6377C93.975 15.0327 94.4888 14.5574 95.1417 14.2117C95.7947 13.866 96.5245 13.6932 97.3311 13.6932C98.0993 13.6932 98.8051 13.8132 99.4484 14.0533C100.101 14.2838 100.63 14.6102 101.033 15.0327L99.7653 16.6171C99.4964 16.3483 99.1604 16.1274 98.7571 15.9546C98.3634 15.7817 97.9553 15.6953 97.5327 15.6953C96.8798 15.6953 96.3516 15.8826 95.9483 16.2571C95.5546 16.6219 95.3578 17.0925 95.3578 17.6686C95.3578 18.2352 95.5594 18.7057 95.9627 19.0802C96.3756 19.4451 96.899 19.6275 97.5327 19.6275C98.4162 19.6275 99.1652 19.3635 99.7797 18.8353L101.033 20.4053C100.582 20.7894 100.044 21.0919 99.4196 21.3128C98.7955 21.5336 98.1233 21.644 97.4031 21.644ZM102.453 10.8413H104.7V16.9052L108.085 13.8516H111.139L107.35 17.0637L111.052 21.5H108.33L105.795 18.3888L104.7 19.3106V21.5H102.453V10.8413ZM112.384 13.8516H114.573L114.616 15.148C114.924 14.7063 115.303 14.3558 115.754 14.0965C116.206 13.8276 116.676 13.6932 117.166 13.6932C117.665 13.6932 118.097 13.7796 118.462 13.9525L117.828 16.4587C117.684 16.3723 117.488 16.3003 117.238 16.2427C116.988 16.1754 116.743 16.1418 116.503 16.1418C115.956 16.1418 115.519 16.3099 115.193 16.646C114.866 16.9724 114.703 17.3709 114.703 17.8415V21.5H112.384V13.8516Z" fill="#29333D"/>
<defs>
<clipPath id="clip0_321_28302">
<rect width="32.0082" height="32.0082" fill="white" transform="translate(0 -0.00390625)"/>
</clipPath>
</defs>
</svg>
