<svg width="72" height="26" viewBox="0 0 72 26" fill="none" xmlns="http://www.w3.org/2000/svg">
<path d="M24.3851 24.2159H9.4797C3.89339 24.2159 0.169189 20.4917 0.169189 14.9054V0H15.066C20.6523 0 24.3765 3.72421 24.3765 9.31051V24.2159H24.3851Z" fill="white" fill-opacity="0.9"/>
<path d="M13.2026 8.37988H15.0647C18.5412 8.37988 20.651 10.4982 20.651 13.9662V20.4836H18.7889C15.3636 20.4836 13.2026 18.2969 13.2026 14.8972V8.37988Z" fill="#00DD39"/>
<path d="M3.89307 3.72363H11.3415V20.4826H9.47937C6.01996 20.4826 3.89307 18.3898 3.89307 14.8962V3.72363Z" fill="#004E2B"/>
<path d="M32.5576 10.0126V7.91996H30.017V10.0126H28.9227V4.77783H30.017V6.91524H32.5576V4.77783H33.6519V10.0126H32.5576Z" fill="white" fill-opacity="0.9"/>
<path d="M34.3311 8.0221C34.3311 6.7934 35.2462 5.95508 36.4109 5.95508C37.6652 5.95508 38.4779 6.7934 38.4779 8.0221C38.4779 8.16928 38.4779 8.22688 38.4651 8.45086H35.4126C35.5277 8.88602 35.8925 9.23799 36.5517 9.23799C37.0508 9.23799 37.3452 9.1036 37.6268 8.80283L38.2731 9.44917C37.9147 9.77554 37.4028 10.0955 36.5069 10.0955C35.099 10.0891 34.3311 9.25079 34.3311 8.0221ZM37.4412 7.61253C37.3836 7.19657 37.0508 6.8126 36.4557 6.8126C35.8029 6.8126 35.483 7.20297 35.3806 7.61253H37.4412Z" fill="white" fill-opacity="0.9"/>
<path d="M39.0663 4.6429C39.0663 4.29733 39.2967 4.06055 39.687 4.06055C40.0774 4.06055 40.3078 4.29733 40.3078 4.6429C40.3078 4.98847 40.0774 5.22524 39.687 5.22524C39.2967 5.22524 39.0663 4.98847 39.0663 4.6429ZM39.1687 10.012V6.04437H40.199V10.0184H39.1687V10.012Z" fill="white" fill-opacity="0.9"/>
<path d="M44.2758 4.47754H45.3125V10.0131H44.3334L44.3078 9.4883C44.0582 9.80827 43.6038 10.0834 42.9447 10.0834C41.78 10.0834 40.8777 9.18753 40.8777 8.01643C40.8777 6.84533 41.7736 5.94941 42.9447 5.94941C43.5782 5.94941 44.0198 6.20539 44.2758 6.51256V4.47754ZM43.1047 9.22592C43.783 9.22592 44.3078 8.70757 44.3078 8.02283C44.3078 7.35089 43.783 6.81973 43.1047 6.81973C42.4263 6.81973 41.9016 7.35089 41.9016 8.02283C41.9016 8.71397 42.4199 9.22592 43.1047 9.22592Z" fill="white" fill-opacity="0.9"/>
<path d="M45.9587 8.0221C45.9587 6.7934 46.8738 5.95508 48.0385 5.95508C49.2928 5.95508 50.1055 6.7934 50.1055 8.0221C50.1055 8.16928 50.1055 8.22688 50.0927 8.45086H47.0402C47.1554 8.88602 47.5201 9.23799 48.1793 9.23799C48.6784 9.23799 48.9728 9.1036 49.2544 8.80283L49.9007 9.44917C49.5424 9.77554 49.0304 10.0955 48.1345 10.0955C46.733 10.0891 45.9587 9.25079 45.9587 8.0221ZM49.0688 7.61253C49.0112 7.19657 48.6784 6.8126 48.0833 6.8126C47.4306 6.8126 47.1106 7.20297 47.0082 7.61253H49.0688Z" fill="white" fill-opacity="0.9"/>
<path d="M50.7702 10.0131V4.47754H51.8005V10.0131H50.7702Z" fill="white" fill-opacity="0.9"/>
<path d="M53.694 6.51896C53.95 6.21179 54.3915 5.95581 55.0251 5.95581C56.1898 5.95581 57.0921 6.85173 57.0921 8.02283C57.0921 9.19393 56.1962 10.0898 55.0251 10.0898C54.3659 10.0898 53.9116 9.81467 53.662 9.4947L53.6364 10.0195H52.6573V4.47754H53.694V6.51896ZM54.8651 6.81973C54.1868 6.81973 53.662 7.35089 53.662 8.02283C53.662 8.71397 54.1868 9.22592 54.8651 9.22592C55.5434 9.22592 56.0682 8.70757 56.0682 8.02283C56.0682 7.35089 55.5498 6.81973 54.8651 6.81973Z" fill="white" fill-opacity="0.9"/>
<path d="M57.5601 8.0221C57.5601 6.7934 58.4752 5.95508 59.6399 5.95508C60.8942 5.95508 61.707 6.7934 61.707 8.0221C61.707 8.16928 61.707 8.22688 61.6942 8.45086H58.6416C58.7568 8.88602 59.1216 9.23799 59.7807 9.23799C60.2799 9.23799 60.5743 9.1036 60.8558 8.80283L61.5022 9.44917C61.1438 9.77554 60.6319 10.0955 59.7359 10.0955C58.3281 10.0891 57.5601 9.25079 57.5601 8.0221ZM60.6702 7.61253C60.6127 7.19657 60.2799 6.8126 59.6847 6.8126C59.032 6.8126 58.712 7.20297 58.6096 7.61253H60.6702Z" fill="white" fill-opacity="0.9"/>
<path d="M62.3665 10.0117V7.7527C62.3665 6.70319 63.0384 6.03125 64.0879 6.03125H65.0158V6.95917H64.3247C63.6655 6.95917 63.3968 7.22794 63.3968 7.88709V10.0117H62.3665Z" fill="white" fill-opacity="0.9"/>
<path d="M65.5721 10.9984L66.2184 10.352C66.5384 10.672 66.9159 10.8768 67.5879 10.8768C68.2598 10.8768 68.695 10.4416 68.695 9.76968V9.52011C68.439 9.82728 67.9974 10.0833 67.3639 10.0833C66.1992 10.0833 65.2969 9.18733 65.2969 8.01624C65.2969 6.84514 66.1928 5.94922 67.3639 5.94922C68.023 5.94922 68.4774 6.22439 68.727 6.54437L68.7526 6.01961H69.7317V9.66729C69.7317 10.9408 68.8614 11.7343 67.5943 11.7343C66.6088 11.7343 65.9432 11.4079 65.5721 10.9984ZM67.5175 9.22573C68.1958 9.22573 68.7206 8.70738 68.7206 8.02264C68.7206 7.3507 68.1958 6.81954 67.5175 6.81954C66.8391 6.81954 66.3144 7.3507 66.3144 8.02264C66.3144 8.71378 66.8327 9.22573 67.5175 9.22573Z" fill="white" fill-opacity="0.9"/>
<path d="M28.9274 17.7026V12.4614H29.9577L31.7175 15.0916L33.503 12.4614H34.5077V17.6962H33.4134V14.2981L31.9543 16.4291H31.4743L30.0153 14.3045V17.7026H28.9274Z" fill="white" fill-opacity="0.9"/>
<path d="M35.1868 15.712C35.1868 14.5473 36.0827 13.645 37.2538 13.645C37.9129 13.645 38.3673 13.9202 38.6169 14.2402L38.6425 13.7154H39.6216V17.6959H38.6425L38.6169 17.1711C38.3673 17.4911 37.9129 17.7663 37.2538 17.7663C36.0827 17.7727 35.1868 16.8767 35.1868 15.712ZM37.4074 16.9151C38.0857 16.9151 38.6105 16.3968 38.6105 15.712C38.6105 15.0401 38.0857 14.5089 37.4074 14.5089C36.729 14.5089 36.2043 15.0401 36.2043 15.712C36.2043 16.3968 36.729 16.9151 37.4074 16.9151Z" fill="white" fill-opacity="0.9"/>
<path d="M41.0481 14.6491H40.1329V13.7212H41.0481V12.6396H42.0784V13.7212H43.531V14.6491H42.0784V16.0122C42.0784 16.5177 42.3343 16.7737 42.8399 16.7737H43.531V17.7016H42.6607C41.5984 17.7016 41.0481 17.1513 41.0481 16.0889V14.6491Z" fill="white" fill-opacity="0.9"/>
<path d="M43.9724 15.712C43.9724 14.4833 44.8875 13.645 46.0522 13.645C47.3065 13.645 48.1192 14.4833 48.1192 15.712C48.1192 15.8592 48.1192 15.9168 48.1064 16.1408H45.0539C45.1691 16.576 45.5339 16.9279 46.193 16.9279C46.6922 16.9279 46.9865 16.7935 47.2681 16.4928L47.9145 17.1391C47.5561 17.4655 47.0441 17.7855 46.1482 17.7855C44.7467 17.7727 43.9724 16.9343 43.9724 15.712ZM47.0825 15.2961C47.0249 14.8801 46.6922 14.4961 46.097 14.4961C45.4443 14.4961 45.1243 14.8865 45.0219 15.2961H47.0825Z" fill="white" fill-opacity="0.9"/>
<path d="M48.7848 17.7026V15.4436C48.7848 14.3941 49.4567 13.7222 50.5062 13.7222H51.4342V14.6501H50.743C50.0839 14.6501 49.8151 14.9189 49.8151 15.578V17.7026H48.7848Z" fill="white" fill-opacity="0.9"/>
<path d="M51.9268 12.327C51.9268 11.9814 52.1571 11.7446 52.5475 11.7446C52.9379 11.7446 53.1683 11.9814 53.1683 12.327C53.1683 12.6725 52.9379 12.9093 52.5475 12.9093C52.1571 12.9157 51.9268 12.6725 51.9268 12.327ZM52.0292 17.7025V13.7285H53.0595V17.7025H52.0292Z" fill="white" fill-opacity="0.9"/>
<path d="M53.7441 15.712C53.7441 14.5473 54.6401 13.645 55.8112 13.645C56.4703 13.645 56.9247 13.9202 57.1742 14.2402L57.1998 13.7154H58.179V17.6959H57.1998L57.1742 17.1711C56.9247 17.4911 56.4703 17.7663 55.8112 17.7663C54.6401 17.7727 53.7441 16.8767 53.7441 15.712ZM55.9647 16.9151C56.6431 16.9151 57.1678 16.3968 57.1678 15.712C57.1678 15.0401 56.6431 14.5089 55.9647 14.5089C55.2864 14.5089 54.7616 15.0401 54.7616 15.712C54.7616 16.3968 55.28 16.9151 55.9647 16.9151Z" fill="white" fill-opacity="0.9"/>
<path d="M59.0306 17.703V12.1675H60.061V17.703H59.0306Z" fill="white" fill-opacity="0.9"/>
<path d="M60.5967 17.1021L61.2431 16.4558C61.5439 16.7566 62.1134 16.9357 62.6638 16.9357C63.2333 16.9357 63.4573 16.8142 63.4573 16.6094C63.4573 16.3854 63.2333 16.283 62.3566 16.1166C61.3327 15.9246 60.7247 15.6111 60.7247 14.8623C60.7247 14.0816 61.5247 13.6528 62.555 13.6528C63.4253 13.6528 64.0524 13.9472 64.4044 14.2992L63.7581 14.9455C63.5213 14.7087 63.0925 14.4976 62.5358 14.4976C62.0302 14.4976 61.7486 14.6191 61.7486 14.8239C61.7486 15.0351 61.9342 15.1247 62.8941 15.3167C63.8221 15.5023 64.4812 15.7966 64.4812 16.571C64.4812 17.3517 63.7709 17.7805 62.587 17.7805C61.6207 17.7741 60.9871 17.4925 60.5967 17.1021Z" fill="white" fill-opacity="0.9"/>
<path d="M29.1826 23.5225V20.3475H30.4572C30.687 20.3475 30.8941 20.3853 31.0786 20.4608C31.2661 20.5364 31.4263 20.6453 31.5594 20.7874C31.6954 20.9295 31.7982 21.0974 31.8678 21.2909C31.9404 21.4844 31.9766 21.6991 31.9766 21.935C31.9766 22.1708 31.9404 22.387 31.8678 22.5836C31.7982 22.7771 31.6969 22.9449 31.5639 23.087C31.4309 23.2261 31.2706 23.3335 31.0831 23.4091C30.8956 23.4847 30.687 23.5225 30.4572 23.5225H29.1826ZM29.7723 23.0644L29.7269 22.9782H30.4345C30.5827 22.9782 30.7142 22.954 30.8291 22.9056C30.947 22.8572 31.0468 22.7877 31.1285 22.697C31.2101 22.6062 31.2721 22.4974 31.3144 22.3704C31.3568 22.2404 31.3779 22.0952 31.3779 21.935C31.3779 21.7747 31.3568 21.6311 31.3144 21.5041C31.2721 21.374 31.2086 21.2637 31.1239 21.173C31.0423 21.0822 30.944 21.0127 30.8291 20.9643C30.7142 20.9159 30.5827 20.8917 30.4345 20.8917H29.7133L29.7723 20.8146V23.0644ZM32.6245 23.5225V21.1321H33.1824V23.5225H32.6245ZM32.8967 20.6241C32.7848 20.6241 32.6971 20.5969 32.6336 20.5425C32.5731 20.485 32.5429 20.4049 32.5429 20.3021C32.5429 20.2053 32.5746 20.1267 32.6381 20.0662C32.7016 20.0058 32.7878 19.9755 32.8967 19.9755C33.0116 19.9755 33.0993 20.0043 33.1597 20.0617C33.2232 20.1161 33.255 20.1963 33.255 20.3021C33.255 20.3958 33.2232 20.4729 33.1597 20.5334C33.0962 20.5939 33.0085 20.6241 32.8967 20.6241ZM35.0102 24.5657C34.8318 24.5657 34.6534 24.5385 34.4749 24.484C34.2996 24.4296 34.1574 24.3585 34.0486 24.2709L34.2482 23.8581C34.3117 23.9035 34.3827 23.9428 34.4613 23.976C34.54 24.0093 34.6231 24.035 34.7108 24.0531C34.8015 24.0713 34.8907 24.0804 34.9784 24.0804C35.1387 24.0804 35.2717 24.0547 35.3776 24.0032C35.4864 23.9549 35.5681 23.8793 35.6225 23.7765C35.6769 23.6767 35.7041 23.5512 35.7041 23.4V22.96L35.7858 22.9918C35.7676 23.0855 35.7177 23.1747 35.6361 23.2594C35.5544 23.3441 35.4516 23.4136 35.3277 23.468C35.2037 23.5194 35.0767 23.5451 34.9467 23.5451C34.7199 23.5451 34.5188 23.4922 34.3434 23.3864C34.1711 23.2806 34.0335 23.1369 33.9307 22.9555C33.8309 22.771 33.781 22.5594 33.781 22.3205C33.781 22.0816 33.8309 21.8699 33.9307 21.6855C34.0304 21.498 34.1665 21.3514 34.3389 21.2455C34.5143 21.1367 34.7108 21.0822 34.9285 21.0822C35.0192 21.0822 35.1069 21.0928 35.1916 21.114C35.2763 21.1352 35.3534 21.1654 35.4229 21.2047C35.4955 21.244 35.5605 21.2879 35.6179 21.3362C35.6754 21.3846 35.7223 21.436 35.7586 21.4905C35.7948 21.5449 35.8175 21.5978 35.8266 21.6492L35.7087 21.6855L35.7177 21.1321H36.2666V23.3592C36.2666 23.5527 36.2378 23.7235 36.1804 23.8717C36.1229 24.0199 36.0398 24.1454 35.9309 24.2482C35.8221 24.354 35.6905 24.4326 35.5363 24.484C35.3821 24.5385 35.2067 24.5657 35.0102 24.5657ZM35.0328 23.0689C35.1689 23.0689 35.2884 23.0371 35.3912 22.9736C35.497 22.9101 35.5786 22.8224 35.6361 22.7106C35.6935 22.5987 35.7223 22.4702 35.7223 22.325C35.7223 22.1769 35.692 22.0468 35.6316 21.935C35.5741 21.8201 35.494 21.7309 35.3912 21.6674C35.2884 21.6039 35.1689 21.5721 35.0328 21.5721C34.8968 21.5721 34.7773 21.6054 34.6745 21.6719C34.5717 21.7354 34.4901 21.8246 34.4296 21.9395C34.3721 22.0514 34.3434 22.1799 34.3434 22.325C34.3434 22.4671 34.3721 22.5957 34.4296 22.7106C34.4901 22.8224 34.5717 22.9101 34.6745 22.9736C34.7773 23.0371 34.8968 23.0689 35.0328 23.0689ZM37.0206 23.5225V21.1321H37.5785V23.5225H37.0206ZM37.2928 20.6241C37.1809 20.6241 37.0932 20.5969 37.0297 20.5425C36.9692 20.485 36.939 20.4049 36.939 20.3021C36.939 20.2053 36.9707 20.1267 37.0342 20.0662C37.0977 20.0058 37.1839 19.9755 37.2928 19.9755C37.4077 19.9755 37.4954 20.0043 37.5558 20.0617C37.6193 20.1161 37.6511 20.1963 37.6511 20.3021C37.6511 20.3958 37.6193 20.4729 37.5558 20.5334C37.4923 20.5939 37.4046 20.6241 37.2928 20.6241ZM38.5898 23.5225V20.5243H39.1477V23.5225H38.5898ZM38.1181 21.6492V21.1321H39.6693V21.6492H38.1181ZM41.02 23.5678C40.8235 23.5678 40.6451 23.5134 40.4848 23.4045C40.3246 23.2957 40.196 23.1475 40.0993 22.96C40.0025 22.7726 39.9541 22.5594 39.9541 22.3205C39.9541 22.0816 40.0025 21.8684 40.0993 21.681C40.196 21.4935 40.3276 21.3468 40.4939 21.241C40.6602 21.1352 40.8477 21.0822 41.0563 21.0822C41.1773 21.0822 41.2876 21.1004 41.3874 21.1367C41.4872 21.1699 41.5749 21.2183 41.6505 21.2818C41.7261 21.3453 41.7881 21.4179 41.8365 21.4995C41.8879 21.5812 41.9226 21.6689 41.9408 21.7626L41.8183 21.7309V21.1321H42.3807V23.5225H41.8138V22.951L41.9453 22.9283C41.9242 23.0099 41.8848 23.0901 41.8274 23.1687C41.773 23.2443 41.7034 23.3123 41.6187 23.3728C41.5371 23.4302 41.4449 23.4771 41.3421 23.5134C41.2423 23.5497 41.1349 23.5678 41.02 23.5678ZM41.1742 23.0734C41.3043 23.0734 41.4192 23.0417 41.519 22.9782C41.6187 22.9147 41.6959 22.827 41.7503 22.7151C41.8077 22.6002 41.8365 22.4687 41.8365 22.3205C41.8365 22.1754 41.8077 22.0468 41.7503 21.935C41.6959 21.8231 41.6187 21.7354 41.519 21.6719C41.4192 21.6084 41.3043 21.5766 41.1742 21.5766C41.0442 21.5766 40.9293 21.6084 40.8295 21.6719C40.7328 21.7354 40.6572 21.8231 40.6027 21.935C40.5483 22.0468 40.5211 22.1754 40.5211 22.3205C40.5211 22.4687 40.5483 22.6002 40.6027 22.7151C40.6572 22.827 40.7328 22.9147 40.8295 22.9782C40.9293 23.0417 41.0442 23.0734 41.1742 23.0734ZM43.0774 23.5225V20.166H43.6399V23.5225H43.0774ZM47.8557 23.5225V20.3475H48.4454V23.5225H47.8557ZM45.8192 23.5225V20.3475H46.4088V23.5225H45.8192ZM46.0641 22.2162V21.6628H48.1415V22.2162H46.0641ZM50.0763 23.5678C49.904 23.5678 49.7543 23.53 49.6273 23.4544C49.5003 23.3758 49.4035 23.2654 49.337 23.1233C49.2705 22.9782 49.2372 22.8058 49.2372 22.6062V21.1321H49.7951V22.4883C49.7951 22.6153 49.8147 22.7242 49.8541 22.8149C49.8934 22.9026 49.9508 22.9706 50.0264 23.019C50.102 23.0674 50.1927 23.0916 50.2986 23.0916C50.3772 23.0916 50.4482 23.0795 50.5117 23.0553C50.5783 23.0281 50.6357 22.9918 50.6841 22.9464C50.7325 22.898 50.7703 22.8421 50.7975 22.7786C50.8247 22.7121 50.8383 22.641 50.8383 22.5654V21.1321H51.3962V23.5225H50.8519L50.8428 23.0235L50.9426 22.9691C50.9063 23.084 50.8444 23.1868 50.7567 23.2775C50.672 23.3652 50.5707 23.4363 50.4528 23.4907C50.3348 23.5421 50.2094 23.5678 50.0763 23.5678ZM53.4153 23.5678C53.3095 23.5678 53.2052 23.5527 53.1024 23.5225C53.0026 23.4892 52.9119 23.4454 52.8302 23.3909C52.7486 23.3365 52.6806 23.276 52.6261 23.2095C52.5717 23.1399 52.5354 23.0704 52.5173 23.0009L52.6488 22.9419L52.6352 23.5134H52.0955V20.166H52.6533V21.6855L52.5536 21.6401C52.5687 21.5676 52.6019 21.4995 52.6533 21.436C52.7078 21.3695 52.7743 21.3105 52.8529 21.2591C52.9315 21.2047 53.0177 21.1624 53.1115 21.1321C53.2052 21.0989 53.3004 21.0822 53.3972 21.0822C53.6119 21.0822 53.8009 21.1352 53.9642 21.241C54.1305 21.3468 54.2605 21.4935 54.3542 21.681C54.451 21.8684 54.4994 22.0816 54.4994 22.3205C54.4994 22.5624 54.4525 22.7771 54.3588 22.9646C54.265 23.152 54.135 23.3002 53.9687 23.4091C53.8054 23.5149 53.621 23.5678 53.4153 23.5678ZM53.2974 23.078C53.4244 23.078 53.5378 23.0462 53.6376 22.9827C53.7374 22.9162 53.816 22.827 53.8735 22.7151C53.9309 22.6002 53.9596 22.4687 53.9596 22.3205C53.9596 22.1754 53.9309 22.0468 53.8735 21.935C53.819 21.8231 53.7419 21.7354 53.6421 21.6719C53.5423 21.6084 53.4274 21.5766 53.2974 21.5766C53.1674 21.5766 53.0525 21.6084 52.9527 21.6719C52.8529 21.7354 52.7743 21.8231 52.7168 21.935C52.6594 22.0468 52.6307 22.1754 52.6307 22.3205C52.6307 22.4687 52.6594 22.6002 52.7168 22.7151C52.7743 22.827 52.8529 22.9162 52.9527 22.9827C53.0525 23.0462 53.1674 23.078 53.2974 23.078ZM57.9628 23.5678C57.724 23.5678 57.5032 23.527 57.3006 23.4454C57.098 23.3607 56.9211 23.2443 56.7699 23.0961C56.6218 22.9479 56.5069 22.7756 56.4252 22.579C56.3436 22.3795 56.3028 22.1633 56.3028 21.9304C56.3028 21.7006 56.3436 21.4874 56.4252 21.2909C56.5099 21.0913 56.6278 20.919 56.779 20.7738C56.9302 20.6256 57.1071 20.5107 57.3097 20.4291C57.5153 20.3475 57.736 20.3066 57.9719 20.3066C58.1382 20.3066 58.2985 20.3293 58.4527 20.3747C58.6069 20.42 58.746 20.4835 58.87 20.5652C58.994 20.6468 59.0968 20.739 59.1784 20.8418L58.8065 21.2319C58.7218 21.1503 58.6341 21.0822 58.5434 21.0278C58.4557 20.9734 58.3635 20.9311 58.2667 20.9008C58.17 20.8706 58.0702 20.8555 57.9674 20.8555C57.8162 20.8555 57.6756 20.8827 57.5455 20.9371C57.4185 20.9915 57.3067 21.0671 57.2099 21.1639C57.1162 21.2606 57.0421 21.374 56.9877 21.5041C56.9332 21.6341 56.906 21.7762 56.906 21.9304C56.906 22.0786 56.9332 22.2192 56.9877 22.3522C57.0451 22.4853 57.1237 22.6017 57.2235 22.7015C57.3233 22.8013 57.4382 22.8799 57.5682 22.9374C57.7013 22.9918 57.8419 23.019 57.99 23.019C58.1019 23.019 58.2062 23.0024 58.303 22.9691C58.3998 22.9358 58.486 22.8905 58.5615 22.833C58.6371 22.7726 58.6946 22.703 58.7339 22.6244C58.7762 22.5458 58.7974 22.4611 58.7974 22.3704V22.2706L58.879 22.3659H57.9402V21.8397H59.378C59.384 21.873 59.3886 21.9108 59.3916 21.9531C59.3946 21.9924 59.3961 22.0317 59.3961 22.071C59.3991 22.1073 59.4007 22.1391 59.4007 22.1663C59.4007 22.3749 59.3644 22.5654 59.2918 22.7378C59.2192 22.9071 59.1164 23.0538 58.9834 23.1777C58.8533 23.3017 58.7006 23.3985 58.5253 23.468C58.3529 23.5346 58.1654 23.5678 57.9628 23.5678ZM59.9653 23.5225V20.166H60.5186V21.622L60.4143 21.6764C60.4446 21.5676 60.5035 21.4693 60.5912 21.3816C60.6789 21.2909 60.7832 21.2183 60.9042 21.1639C61.0251 21.1095 61.1491 21.0822 61.2761 21.0822C61.4575 21.0822 61.6087 21.1185 61.7297 21.1911C61.8537 21.2637 61.9459 21.3725 62.0064 21.5177C62.0699 21.6628 62.1016 21.8442 62.1016 22.062V23.5225H61.5437V22.1028C61.5437 21.9818 61.5271 21.882 61.4938 21.8034C61.4606 21.7218 61.4092 21.6628 61.3396 21.6265C61.2701 21.5872 61.1854 21.5691 61.0856 21.5721C61.004 21.5721 60.9284 21.5857 60.8588 21.6129C60.7923 21.6371 60.7333 21.6734 60.6819 21.7218C60.6335 21.7671 60.5942 21.8201 60.564 21.8805C60.5368 21.941 60.5232 22.0075 60.5232 22.0801V23.5225H60.2465C60.1921 23.5225 60.1407 23.5225 60.0923 23.5225C60.0469 23.5225 60.0046 23.5225 59.9653 23.5225ZM63.6772 23.5678C63.4807 23.5678 63.3023 23.5134 63.142 23.4045C62.9817 23.2957 62.8532 23.1475 62.7565 22.96C62.6597 22.7726 62.6113 22.5594 62.6113 22.3205C62.6113 22.0816 62.6597 21.8684 62.7565 21.681C62.8532 21.4935 62.9848 21.3468 63.1511 21.241C63.3174 21.1352 63.5048 21.0822 63.7135 21.0822C63.8344 21.0822 63.9448 21.1004 64.0446 21.1367C64.1444 21.1699 64.2321 21.2183 64.3077 21.2818C64.3833 21.3453 64.4453 21.4179 64.4936 21.4995C64.545 21.5812 64.5798 21.6689 64.598 21.7626L64.4755 21.7309V21.1321H65.0379V23.5225H64.471V22.951L64.6025 22.9283C64.5813 23.0099 64.542 23.0901 64.4846 23.1687C64.4301 23.2443 64.3606 23.3123 64.2759 23.3728C64.1943 23.4302 64.1021 23.4771 63.9992 23.5134C63.8995 23.5497 63.7921 23.5678 63.6772 23.5678ZM63.8314 23.0734C63.9614 23.0734 64.0763 23.0417 64.1761 22.9782C64.2759 22.9147 64.353 22.827 64.4075 22.7151C64.4649 22.6002 64.4936 22.4687 64.4936 22.3205C64.4936 22.1754 64.4649 22.0468 64.4075 21.935C64.353 21.8231 64.2759 21.7354 64.1761 21.6719C64.0763 21.6084 63.9614 21.5766 63.8314 21.5766C63.7014 21.5766 63.5865 21.6084 63.4867 21.6719C63.3899 21.7354 63.3143 21.8231 63.2599 21.935C63.2055 22.0468 63.1783 22.1754 63.1783 22.3205C63.1783 22.4687 63.2055 22.6002 63.2599 22.7151C63.3143 22.827 63.3899 22.9147 63.4867 22.9782C63.5865 23.0417 63.7014 23.0734 63.8314 23.0734ZM65.7301 23.5225V21.1321H66.2744L66.2834 21.622L66.1791 21.6764C66.2094 21.5676 66.2683 21.4693 66.356 21.3816C66.4437 21.2909 66.548 21.2183 66.669 21.1639C66.7899 21.1095 66.9139 21.0822 67.0409 21.0822C67.2223 21.0822 67.3735 21.1185 67.4945 21.1911C67.6185 21.2637 67.7107 21.3725 67.7712 21.5177C67.8347 21.6628 67.8664 21.8442 67.8664 22.062V23.5225H67.3085V22.1028C67.3085 21.9818 67.2919 21.882 67.2586 21.8034C67.2254 21.7218 67.174 21.6628 67.1044 21.6265C67.0349 21.5872 66.9502 21.5691 66.8504 21.5721C66.7688 21.5721 66.6932 21.5857 66.6236 21.6129C66.5571 21.6371 66.4981 21.6734 66.4467 21.7218C66.3983 21.7671 66.359 21.8201 66.3288 21.8805C66.3016 21.941 66.288 22.0075 66.288 22.0801V23.5225H66.0113C65.9569 23.5225 65.9055 23.5225 65.8571 23.5225C65.8117 23.5225 65.7694 23.5225 65.7301 23.5225ZM69.442 23.5678C69.2455 23.5678 69.067 23.5134 68.9068 23.4045C68.7465 23.2957 68.618 23.1475 68.5213 22.96C68.4245 22.7726 68.3761 22.5594 68.3761 22.3205C68.3761 22.0816 68.4245 21.8684 68.5213 21.681C68.618 21.4935 68.7495 21.3468 68.9159 21.241C69.0822 21.1352 69.2696 21.0822 69.4783 21.0822C69.5992 21.0822 69.7096 21.1004 69.8094 21.1367C69.9092 21.1699 69.9969 21.2183 70.0725 21.2818C70.1481 21.3453 70.2101 21.4179 70.2584 21.4995C70.3098 21.5812 70.3446 21.6689 70.3628 21.7626L70.2403 21.7309V21.1321H70.8027V23.5225H70.2358V22.951L70.3673 22.9283C70.3461 23.0099 70.3068 23.0901 70.2494 23.1687C70.1949 23.2443 70.1254 23.3123 70.0407 23.3728C69.9591 23.4302 69.8668 23.4771 69.764 23.5134C69.6643 23.5497 69.5569 23.5678 69.442 23.5678ZM69.5962 23.0734C69.7262 23.0734 69.8411 23.0417 69.9409 22.9782C70.0407 22.9147 70.1178 22.827 70.1723 22.7151C70.2297 22.6002 70.2584 22.4687 70.2584 22.3205C70.2584 22.1754 70.2297 22.0468 70.1723 21.935C70.1178 21.8231 70.0407 21.7354 69.9409 21.6719C69.8411 21.6084 69.7262 21.5766 69.5962 21.5766C69.4662 21.5766 69.3513 21.6084 69.2515 21.6719C69.1547 21.7354 69.0791 21.8231 69.0247 21.935C68.9703 22.0468 68.9431 22.1754 68.9431 22.3205C68.9431 22.4687 68.9703 22.6002 69.0247 22.7151C69.0791 22.827 69.1547 22.9147 69.2515 22.9782C69.3513 23.0417 69.4662 23.0734 69.5962 23.0734Z" fill="white" fill-opacity="0.9"/>
</svg>
