<svg width="72" height="26" viewBox="0 0 72 26" fill="none" xmlns="http://www.w3.org/2000/svg">
<path d="M24.3838 24.2159H9.47848C3.89217 24.2159 0.167969 20.4917 0.167969 14.9054V0H15.0648C20.6511 0 24.3753 3.72421 24.3753 9.31051V24.2159H24.3838Z" fill="#004E2B"/>
<path d="M13.2012 8.37988H15.0633C18.5398 8.37988 20.6496 10.4982 20.6496 13.9662V20.4836H18.7875C15.3622 20.4836 13.2012 18.2969 13.2012 14.8972V8.37988Z" fill="#00DD39"/>
<path d="M3.89258 3.72363H11.341V20.4826H9.47889C6.01948 20.4826 3.89258 18.3898 3.89258 14.8962V3.72363Z" fill="white"/>
<path d="M32.5568 10.0121V7.91947H30.0162V10.0121H28.9219V4.77734H30.0162V6.91476H32.5568V4.77734H33.6511V10.0121H32.5568Z" fill="#004E2B"/>
<path d="M34.3301 8.0221C34.3301 6.7934 35.2452 5.95508 36.4099 5.95508C37.6642 5.95508 38.4769 6.7934 38.4769 8.0221C38.4769 8.16928 38.4769 8.22688 38.4641 8.45086H35.4116C35.5268 8.88602 35.8915 9.23799 36.5507 9.23799C37.0498 9.23799 37.3442 9.1036 37.6258 8.80283L38.2721 9.44917C37.9138 9.77554 37.4018 10.0955 36.5059 10.0955C35.098 10.0891 34.3301 9.25079 34.3301 8.0221ZM37.4402 7.61253C37.3826 7.19657 37.0498 6.8126 36.4547 6.8126C35.802 6.8126 35.482 7.20297 35.3796 7.61253H37.4402Z" fill="#004E2B"/>
<path d="M39.0664 4.6429C39.0664 4.29733 39.2968 4.06055 39.6872 4.06055C40.0775 4.06055 40.3079 4.29733 40.3079 4.6429C40.3079 4.98847 40.0775 5.22524 39.6872 5.22524C39.2968 5.22524 39.0664 4.98847 39.0664 4.6429ZM39.1688 10.012V6.04437H40.1991V10.0184H39.1688V10.012Z" fill="#004E2B"/>
<path d="M44.2751 4.47754H45.3118V10.0131H44.3327L44.3071 9.4883C44.0575 9.80827 43.6031 10.0834 42.944 10.0834C41.7793 10.0834 40.877 9.18753 40.877 8.01643C40.877 6.84533 41.7729 5.94941 42.944 5.94941C43.5775 5.94941 44.0191 6.20539 44.2751 6.51256V4.47754ZM43.104 9.22592C43.7823 9.22592 44.3071 8.70757 44.3071 8.02283C44.3071 7.35089 43.7823 6.81973 43.104 6.81973C42.4256 6.81973 41.9009 7.35089 41.9009 8.02283C41.9009 8.71397 42.4192 9.22592 43.104 9.22592Z" fill="#004E2B"/>
<path d="M45.957 8.0221C45.957 6.7934 46.8722 5.95508 48.0368 5.95508C49.2911 5.95508 50.1039 6.7934 50.1039 8.0221C50.1039 8.16928 50.1039 8.22688 50.0911 8.45086H47.0385C47.1537 8.88602 47.5185 9.23799 48.1776 9.23799C48.6768 9.23799 48.9712 9.1036 49.2527 8.80283L49.8991 9.44917C49.5407 9.77554 49.0288 10.0955 48.1328 10.0955C46.7314 10.0891 45.957 9.25079 45.957 8.0221ZM49.0672 7.61253C49.0096 7.19657 48.6768 6.8126 48.0816 6.8126C47.4289 6.8126 47.1089 7.20297 47.0065 7.61253H49.0672Z" fill="#004E2B"/>
<path d="M50.7695 10.0131V4.47754H51.7998V10.0131H50.7695Z" fill="#004E2B"/>
<path d="M53.693 6.51896C53.9489 6.21179 54.3905 5.95581 55.024 5.95581C56.1887 5.95581 57.0911 6.85173 57.0911 8.02283C57.0911 9.19393 56.1951 10.0898 55.024 10.0898C54.3649 10.0898 53.9105 9.81467 53.661 9.4947L53.6354 10.0195H52.6562V4.47754H53.693V6.51896ZM54.8641 6.81973C54.1857 6.81973 53.661 7.35089 53.661 8.02283C53.661 8.71397 54.1857 9.22592 54.8641 9.22592C55.5424 9.22592 56.0672 8.70757 56.0672 8.02283C56.0672 7.35089 55.5488 6.81973 54.8641 6.81973Z" fill="#004E2B"/>
<path d="M57.5586 8.0221C57.5586 6.7934 58.4737 5.95508 59.6384 5.95508C60.8927 5.95508 61.7054 6.7934 61.7054 8.0221C61.7054 8.16928 61.7054 8.22688 61.6926 8.45086H58.6401C58.7553 8.88602 59.1201 9.23799 59.7792 9.23799C60.2784 9.23799 60.5727 9.1036 60.8543 8.80283L61.5006 9.44917C61.1423 9.77554 60.6303 10.0955 59.7344 10.0955C58.3265 10.0891 57.5586 9.25079 57.5586 8.0221ZM60.6687 7.61253C60.6111 7.19657 60.2784 6.8126 59.6832 6.8126C59.0305 6.8126 58.7105 7.20297 58.6081 7.61253H60.6687Z" fill="#004E2B"/>
<path d="M62.3652 10.0117V7.7527C62.3652 6.70319 63.0372 6.03125 64.0867 6.03125H65.0146V6.95917H64.3235C63.6643 6.95917 63.3955 7.22794 63.3955 7.88709V10.0117H62.3652Z" fill="#004E2B"/>
<path d="M65.5721 10.9979L66.2184 10.3515C66.5384 10.6715 66.9159 10.8763 67.5879 10.8763C68.2598 10.8763 68.695 10.4411 68.695 9.7692V9.51962C68.439 9.82679 67.9974 10.0828 67.3639 10.0828C66.1992 10.0828 65.2969 9.18685 65.2969 8.01575C65.2969 6.84465 66.1928 5.94873 67.3639 5.94873C68.023 5.94873 68.4774 6.22391 68.727 6.54388L68.7526 6.01912H69.7317V9.6668C69.7317 10.9403 68.8614 11.7338 67.5943 11.7338C66.6088 11.7338 65.9432 11.4075 65.5721 10.9979ZM67.5175 9.22524C68.1958 9.22524 68.7206 8.70689 68.7206 8.02215C68.7206 7.35021 68.1958 6.81905 67.5175 6.81905C66.8391 6.81905 66.3144 7.35021 66.3144 8.02215C66.3144 8.71329 66.8327 9.22524 67.5175 9.22524Z" fill="#004E2B"/>
<path d="M28.9258 17.7026V12.4614H29.9561L31.7159 15.0916L33.5014 12.4614H34.5061V17.6962H33.4118V14.2981L31.9527 16.4291H31.4728L30.0137 14.3045V17.7026H28.9258Z" fill="#004E2B"/>
<path d="M35.1855 15.712C35.1855 14.5473 36.0815 13.645 37.2526 13.645C37.9117 13.645 38.3661 13.9202 38.6156 14.2402L38.6412 13.7154H39.6204V17.6959H38.6412L38.6156 17.1711C38.3661 17.4911 37.9117 17.7663 37.2526 17.7663C36.0815 17.7727 35.1855 16.8767 35.1855 15.712ZM37.4062 16.9151C38.0845 16.9151 38.6092 16.3968 38.6092 15.712C38.6092 15.0401 38.0845 14.5089 37.4062 14.5089C36.7278 14.5089 36.2031 15.0401 36.2031 15.712C36.2031 16.3968 36.7278 16.9151 37.4062 16.9151Z" fill="#004E2B"/>
<path d="M41.046 14.6491H40.1309V13.7212H41.046V12.6396H42.0763V13.7212H43.529V14.6491H42.0763V16.0122C42.0763 16.5177 42.3323 16.7737 42.8378 16.7737H43.529V17.7016H42.6586C41.5963 17.7016 41.046 17.1513 41.046 16.0889V14.6491Z" fill="#004E2B"/>
<path d="M43.9707 15.712C43.9707 14.4833 44.8858 13.645 46.0505 13.645C47.3048 13.645 48.1175 14.4833 48.1175 15.712C48.1175 15.8592 48.1175 15.9168 48.1047 16.1408H45.0522C45.1674 16.576 45.5322 16.9279 46.1913 16.9279C46.6905 16.9279 46.9848 16.7935 47.2664 16.4928L47.9128 17.1391C47.5544 17.4655 47.0424 17.7855 46.1465 17.7855C44.745 17.7727 43.9707 16.9343 43.9707 15.712ZM47.0808 15.2961C47.0232 14.8801 46.6905 14.4961 46.0953 14.4961C45.4426 14.4961 45.1226 14.8865 45.0202 15.2961H47.0808Z" fill="#004E2B"/>
<path d="M48.7832 17.7026V15.4436C48.7832 14.3941 49.4551 13.7222 50.5047 13.7222H51.4326V14.6501H50.7414C50.0823 14.6501 49.8135 14.9189 49.8135 15.578V17.7026H48.7832Z" fill="#004E2B"/>
<path d="M51.9258 12.327C51.9258 11.9814 52.1562 11.7446 52.5465 11.7446C52.9369 11.7446 53.1673 11.9814 53.1673 12.327C53.1673 12.6725 52.9369 12.9093 52.5465 12.9093C52.1562 12.9157 51.9258 12.6725 51.9258 12.327ZM52.0282 17.7025V13.7285H53.0585V17.7025H52.0282Z" fill="#004E2B"/>
<path d="M53.7422 15.712C53.7422 14.5473 54.6381 13.645 55.8092 13.645C56.4683 13.645 56.9227 13.9202 57.1723 14.2402L57.1979 13.7154H58.177V17.6959H57.1979L57.1723 17.1711C56.9227 17.4911 56.4683 17.7663 55.8092 17.7663C54.6381 17.7727 53.7422 16.8767 53.7422 15.712ZM55.9628 16.9151C56.6411 16.9151 57.1659 16.3968 57.1659 15.712C57.1659 15.0401 56.6411 14.5089 55.9628 14.5089C55.2845 14.5089 54.7597 15.0401 54.7597 15.712C54.7597 16.3968 55.2781 16.9151 55.9628 16.9151Z" fill="#004E2B"/>
<path d="M59.0293 17.703V12.1675H60.0596V17.703H59.0293Z" fill="#004E2B"/>
<path d="M60.5957 17.1021L61.242 16.4558C61.5428 16.7566 62.1124 16.9357 62.6627 16.9357C63.2323 16.9357 63.4563 16.8142 63.4563 16.6094C63.4563 16.3854 63.2323 16.283 62.3555 16.1166C61.3316 15.9246 60.7237 15.6111 60.7237 14.8623C60.7237 14.0816 61.5236 13.6528 62.5539 13.6528C63.4243 13.6528 64.0514 13.9472 64.4034 14.2992L63.757 14.9455C63.5202 14.7087 63.0915 14.4976 62.5347 14.4976C62.0292 14.4976 61.7476 14.6191 61.7476 14.8239C61.7476 15.0351 61.9332 15.1247 62.8931 15.3167C63.821 15.5023 64.4802 15.7966 64.4802 16.571C64.4802 17.3517 63.7698 17.7805 62.5859 17.7805C61.6196 17.7741 60.9861 17.4925 60.5957 17.1021Z" fill="#004E2B"/>
<path d="M29.1822 23.5225V20.3475H30.4568C30.6866 20.3475 30.8937 20.3853 31.0781 20.4608C31.2656 20.5364 31.4259 20.6453 31.5589 20.7874C31.695 20.9295 31.7978 21.0974 31.8674 21.2909C31.9399 21.4844 31.9762 21.6991 31.9762 21.935C31.9762 22.1708 31.9399 22.387 31.8674 22.5836C31.7978 22.7771 31.6965 22.9449 31.5635 23.087C31.4304 23.2261 31.2702 23.3335 31.0827 23.4091C30.8952 23.4847 30.6866 23.5225 30.4568 23.5225H29.1822ZM29.7719 23.0644L29.7265 22.9782H30.4341C30.5822 22.9782 30.7138 22.954 30.8287 22.9056C30.9466 22.8572 31.0464 22.7877 31.128 22.697C31.2097 22.6062 31.2717 22.4974 31.314 22.3704C31.3563 22.2404 31.3775 22.0952 31.3775 21.935C31.3775 21.7747 31.3563 21.6311 31.314 21.5041C31.2717 21.374 31.2082 21.2637 31.1235 21.173C31.0419 21.0822 30.9436 21.0127 30.8287 20.9643C30.7138 20.9159 30.5822 20.8917 30.4341 20.8917H29.7129L29.7719 20.8146V23.0644ZM32.6241 23.5225V21.1321H33.182V23.5225H32.6241ZM32.8962 20.6241C32.7843 20.6241 32.6967 20.5969 32.6332 20.5425C32.5727 20.485 32.5424 20.4049 32.5424 20.3021C32.5424 20.2053 32.5742 20.1267 32.6377 20.0662C32.7012 20.0058 32.7874 19.9755 32.8962 19.9755C33.0111 19.9755 33.0988 20.0043 33.1593 20.0617C33.2228 20.1161 33.2546 20.1963 33.2546 20.3021C33.2546 20.3958 33.2228 20.4729 33.1593 20.5334C33.0958 20.5939 33.0081 20.6241 32.8962 20.6241ZM35.0097 24.5657C34.8313 24.5657 34.6529 24.5385 34.4745 24.484C34.2991 24.4296 34.157 24.3585 34.0482 24.2709L34.2477 23.8581C34.3112 23.9035 34.3823 23.9428 34.4609 23.976C34.5395 24.0093 34.6227 24.035 34.7104 24.0531C34.8011 24.0713 34.8903 24.0804 34.978 24.0804C35.1382 24.0804 35.2713 24.0547 35.3771 24.0032C35.486 23.9549 35.5676 23.8793 35.6221 23.7765C35.6765 23.6767 35.7037 23.5512 35.7037 23.4V22.96L35.7853 22.9918C35.7672 23.0855 35.7173 23.1747 35.6357 23.2594C35.554 23.3441 35.4512 23.4136 35.3272 23.468C35.2033 23.5194 35.0763 23.5451 34.9462 23.5451C34.7194 23.5451 34.5184 23.4922 34.343 23.3864C34.1706 23.2806 34.033 23.1369 33.9302 22.9555C33.8304 22.771 33.7806 22.5594 33.7806 22.3205C33.7806 22.0816 33.8304 21.8699 33.9302 21.6855C34.03 21.498 34.1661 21.3514 34.3384 21.2455C34.5138 21.1367 34.7104 21.0822 34.9281 21.0822C35.0188 21.0822 35.1065 21.0928 35.1912 21.114C35.2758 21.1352 35.3529 21.1654 35.4225 21.2047C35.4951 21.244 35.5601 21.2879 35.6175 21.3362C35.675 21.3846 35.7218 21.436 35.7581 21.4905C35.7944 21.5449 35.8171 21.5978 35.8262 21.6492L35.7082 21.6855L35.7173 21.1321H36.2661V23.3592C36.2661 23.5527 36.2374 23.7235 36.18 23.8717C36.1225 24.0199 36.0393 24.1454 35.9305 24.2482C35.8216 24.354 35.6901 24.4326 35.5359 24.484C35.3817 24.5385 35.2063 24.5657 35.0097 24.5657ZM35.0324 23.0689C35.1685 23.0689 35.2879 23.0371 35.3907 22.9736C35.4966 22.9101 35.5782 22.8224 35.6357 22.7106C35.6931 22.5987 35.7218 22.4702 35.7218 22.325C35.7218 22.1769 35.6916 22.0468 35.6311 21.935C35.5737 21.8201 35.4935 21.7309 35.3907 21.6674C35.2879 21.6039 35.1685 21.5721 35.0324 21.5721C34.8963 21.5721 34.7769 21.6054 34.6741 21.6719C34.5713 21.7354 34.4896 21.8246 34.4292 21.9395C34.3717 22.0514 34.343 22.1799 34.343 22.325C34.343 22.4671 34.3717 22.5957 34.4292 22.7106C34.4896 22.8224 34.5713 22.9101 34.6741 22.9736C34.7769 23.0371 34.8963 23.0689 35.0324 23.0689ZM37.0202 23.5225V21.1321H37.5781V23.5225H37.0202ZM37.2923 20.6241C37.1805 20.6241 37.0928 20.5969 37.0293 20.5425C36.9688 20.485 36.9386 20.4049 36.9386 20.3021C36.9386 20.2053 36.9703 20.1267 37.0338 20.0662C37.0973 20.0058 37.1835 19.9755 37.2923 19.9755C37.4072 19.9755 37.4949 20.0043 37.5554 20.0617C37.6189 20.1161 37.6507 20.1963 37.6507 20.3021C37.6507 20.3958 37.6189 20.4729 37.5554 20.5334C37.4919 20.5939 37.4042 20.6241 37.2923 20.6241ZM38.5894 23.5225V20.5243H39.1473V23.5225H38.5894ZM38.1177 21.6492V21.1321H39.6689V21.6492H38.1177ZM41.0196 23.5678C40.8231 23.5678 40.6447 23.5134 40.4844 23.4045C40.3241 23.2957 40.1956 23.1475 40.0989 22.96C40.0021 22.7726 39.9537 22.5594 39.9537 22.3205C39.9537 22.0816 40.0021 21.8684 40.0989 21.681C40.1956 21.4935 40.3271 21.3468 40.4935 21.241C40.6598 21.1352 40.8472 21.0822 41.0559 21.0822C41.1768 21.0822 41.2872 21.1004 41.387 21.1367C41.4868 21.1699 41.5745 21.2183 41.6501 21.2818C41.7257 21.3453 41.7877 21.4179 41.836 21.4995C41.8874 21.5812 41.9222 21.6689 41.9404 21.7626L41.8179 21.7309V21.1321H42.3803V23.5225H41.8134V22.951L41.9449 22.9283C41.9237 23.0099 41.8844 23.0901 41.827 23.1687C41.7725 23.2443 41.703 23.3123 41.6183 23.3728C41.5367 23.4302 41.4444 23.4771 41.3416 23.5134C41.2419 23.5497 41.1345 23.5678 41.0196 23.5678ZM41.1738 23.0734C41.3038 23.0734 41.4187 23.0417 41.5185 22.9782C41.6183 22.9147 41.6954 22.827 41.7499 22.7151C41.8073 22.6002 41.836 22.4687 41.836 22.3205C41.836 22.1754 41.8073 22.0468 41.7499 21.935C41.6954 21.8231 41.6183 21.7354 41.5185 21.6719C41.4187 21.6084 41.3038 21.5766 41.1738 21.5766C41.0438 21.5766 40.9289 21.6084 40.8291 21.6719C40.7323 21.7354 40.6567 21.8231 40.6023 21.935C40.5479 22.0468 40.5207 22.1754 40.5207 22.3205C40.5207 22.4687 40.5479 22.6002 40.6023 22.7151C40.6567 22.827 40.7323 22.9147 40.8291 22.9782C40.9289 23.0417 41.0438 23.0734 41.1738 23.0734ZM43.077 23.5225V20.166H43.6394V23.5225H43.077ZM47.8553 23.5225V20.3475H48.4449V23.5225H47.8553ZM45.8188 23.5225V20.3475H46.4084V23.5225H45.8188ZM46.0637 22.2162V21.6628H48.141V22.2162H46.0637ZM50.0759 23.5678C49.9035 23.5678 49.7538 23.53 49.6268 23.4544C49.4998 23.3758 49.4031 23.2654 49.3366 23.1233C49.27 22.9782 49.2368 22.8058 49.2368 22.6062V21.1321H49.7947V22.4883C49.7947 22.6153 49.8143 22.7242 49.8536 22.8149C49.8929 22.9026 49.9504 22.9706 50.026 23.019C50.1016 23.0674 50.1923 23.0916 50.2981 23.0916C50.3768 23.0916 50.4478 23.0795 50.5113 23.0553C50.5778 23.0281 50.6353 22.9918 50.6837 22.9464C50.7321 22.898 50.7698 22.8421 50.7971 22.7786C50.8243 22.7121 50.8379 22.641 50.8379 22.5654V21.1321H51.3958V23.5225H50.8515L50.8424 23.0235L50.9422 22.9691C50.9059 23.084 50.8439 23.1868 50.7562 23.2775C50.6716 23.3652 50.5703 23.4363 50.4523 23.4907C50.3344 23.5421 50.2089 23.5678 50.0759 23.5678ZM53.4149 23.5678C53.3091 23.5678 53.2048 23.5527 53.102 23.5225C53.0022 23.4892 52.9115 23.4454 52.8298 23.3909C52.7482 23.3365 52.6801 23.276 52.6257 23.2095C52.5713 23.1399 52.535 23.0704 52.5168 23.0009L52.6484 22.9419L52.6348 23.5134H52.095V20.166H52.6529V21.6855L52.5531 21.6401C52.5683 21.5676 52.6015 21.4995 52.6529 21.436C52.7073 21.3695 52.7739 21.3105 52.8525 21.2591C52.9311 21.2047 53.0173 21.1624 53.111 21.1321C53.2048 21.0989 53.3 21.0822 53.3968 21.0822C53.6115 21.0822 53.8005 21.1352 53.9637 21.241C54.1301 21.3468 54.2601 21.4935 54.3538 21.681C54.4506 21.8684 54.499 22.0816 54.499 22.3205C54.499 22.5624 54.4521 22.7771 54.3583 22.9646C54.2646 23.152 54.1346 23.3002 53.9683 23.4091C53.805 23.5149 53.6205 23.5678 53.4149 23.5678ZM53.297 23.078C53.424 23.078 53.5374 23.0462 53.6372 22.9827C53.737 22.9162 53.8156 22.827 53.873 22.7151C53.9305 22.6002 53.9592 22.4687 53.9592 22.3205C53.9592 22.1754 53.9305 22.0468 53.873 21.935C53.8186 21.8231 53.7415 21.7354 53.6417 21.6719C53.5419 21.6084 53.427 21.5766 53.297 21.5766C53.167 21.5766 53.0521 21.6084 52.9523 21.6719C52.8525 21.7354 52.7739 21.8231 52.7164 21.935C52.659 22.0468 52.6302 22.1754 52.6302 22.3205C52.6302 22.4687 52.659 22.6002 52.7164 22.7151C52.7739 22.827 52.8525 22.9162 52.9523 22.9827C53.0521 23.0462 53.167 23.078 53.297 23.078ZM57.9624 23.5678C57.7235 23.5678 57.5028 23.527 57.3002 23.4454C57.0976 23.3607 56.9207 23.2443 56.7695 23.0961C56.6213 22.9479 56.5064 22.7756 56.4248 22.579C56.3432 22.3795 56.3023 22.1633 56.3023 21.9304C56.3023 21.7006 56.3432 21.4874 56.4248 21.2909C56.5095 21.0913 56.6274 20.919 56.7786 20.7738C56.9298 20.6256 57.1067 20.5107 57.3093 20.4291C57.5149 20.3475 57.7356 20.3066 57.9715 20.3066C58.1378 20.3066 58.298 20.3293 58.4523 20.3747C58.6065 20.42 58.7456 20.4835 58.8695 20.5652C58.9935 20.6468 59.0963 20.739 59.178 20.8418L58.806 21.2319C58.7214 21.1503 58.6337 21.0822 58.543 21.0278C58.4553 20.9734 58.3631 20.9311 58.2663 20.9008C58.1695 20.8706 58.0698 20.8555 57.9669 20.8555C57.8157 20.8555 57.6751 20.8827 57.5451 20.9371C57.4181 20.9915 57.3062 21.0671 57.2095 21.1639C57.1157 21.2606 57.0417 21.374 56.9872 21.5041C56.9328 21.6341 56.9056 21.7762 56.9056 21.9304C56.9056 22.0786 56.9328 22.2192 56.9872 22.3522C57.0447 22.4853 57.1233 22.6017 57.2231 22.7015C57.3229 22.8013 57.4378 22.8799 57.5678 22.9374C57.7008 22.9918 57.8415 23.019 57.9896 23.019C58.1015 23.019 58.2058 23.0024 58.3026 22.9691C58.3993 22.9358 58.4855 22.8905 58.5611 22.833C58.6367 22.7726 58.6942 22.703 58.7335 22.6244C58.7758 22.5458 58.797 22.4611 58.797 22.3704V22.2706L58.8786 22.3659H57.9397V21.8397H59.3776C59.3836 21.873 59.3881 21.9108 59.3912 21.9531C59.3942 21.9924 59.3957 22.0317 59.3957 22.071C59.3987 22.1073 59.4002 22.1391 59.4002 22.1663C59.4002 22.3749 59.3639 22.5654 59.2914 22.7378C59.2188 22.9071 59.116 23.0538 58.9829 23.1777C58.8529 23.3017 58.7002 23.3985 58.5248 23.468C58.3525 23.5346 58.165 23.5678 57.9624 23.5678ZM59.9649 23.5225V20.166H60.5182V21.622L60.4139 21.6764C60.4441 21.5676 60.5031 21.4693 60.5908 21.3816C60.6785 21.2909 60.7828 21.2183 60.9038 21.1639C61.0247 21.1095 61.1487 21.0822 61.2757 21.0822C61.4571 21.0822 61.6083 21.1185 61.7293 21.1911C61.8532 21.2637 61.9455 21.3725 62.0059 21.5177C62.0694 21.6628 62.1012 21.8442 62.1012 22.062V23.5225H61.5433V22.1028C61.5433 21.9818 61.5267 21.882 61.4934 21.8034C61.4601 21.7218 61.4087 21.6628 61.3392 21.6265C61.2696 21.5872 61.185 21.5691 61.0852 21.5721C61.0035 21.5721 60.9279 21.5857 60.8584 21.6129C60.7919 21.6371 60.7329 21.6734 60.6815 21.7218C60.6331 21.7671 60.5938 21.8201 60.5636 21.8805C60.5364 21.941 60.5228 22.0075 60.5228 22.0801V23.5225H60.2461C60.1916 23.5225 60.1402 23.5225 60.0919 23.5225C60.0465 23.5225 60.0042 23.5225 59.9649 23.5225ZM63.6768 23.5678C63.4802 23.5678 63.3018 23.5134 63.1416 23.4045C62.9813 23.2957 62.8528 23.1475 62.756 22.96C62.6593 22.7726 62.6109 22.5594 62.6109 22.3205C62.6109 22.0816 62.6593 21.8684 62.756 21.681C62.8528 21.4935 62.9843 21.3468 63.1506 21.241C63.3169 21.1352 63.5044 21.0822 63.7131 21.0822C63.834 21.0822 63.9444 21.1004 64.0442 21.1367C64.144 21.1699 64.2316 21.2183 64.3072 21.2818C64.3828 21.3453 64.4448 21.4179 64.4932 21.4995C64.5446 21.5812 64.5794 21.6689 64.5975 21.7626L64.4751 21.7309V21.1321H65.0375V23.5225H64.4705V22.951L64.6021 22.9283C64.5809 23.0099 64.5416 23.0901 64.4841 23.1687C64.4297 23.2443 64.3602 23.3123 64.2755 23.3728C64.1939 23.4302 64.1016 23.4771 63.9988 23.5134C63.899 23.5497 63.7917 23.5678 63.6768 23.5678ZM63.831 23.0734C63.961 23.0734 64.0759 23.0417 64.1757 22.9782C64.2755 22.9147 64.3526 22.827 64.407 22.7151C64.4645 22.6002 64.4932 22.4687 64.4932 22.3205C64.4932 22.1754 64.4645 22.0468 64.407 21.935C64.3526 21.8231 64.2755 21.7354 64.1757 21.6719C64.0759 21.6084 63.961 21.5766 63.831 21.5766C63.701 21.5766 63.5861 21.6084 63.4863 21.6719C63.3895 21.7354 63.3139 21.8231 63.2595 21.935C63.2051 22.0468 63.1778 22.1754 63.1778 22.3205C63.1778 22.4687 63.2051 22.6002 63.2595 22.7151C63.3139 22.827 63.3895 22.9147 63.4863 22.9782C63.5861 23.0417 63.701 23.0734 63.831 23.0734ZM65.7297 23.5225V21.1321H66.2739L66.283 21.622L66.1787 21.6764C66.2089 21.5676 66.2679 21.4693 66.3556 21.3816C66.4433 21.2909 66.5476 21.2183 66.6685 21.1639C66.7895 21.1095 66.9135 21.0822 67.0405 21.0822C67.2219 21.0822 67.3731 21.1185 67.494 21.1911C67.618 21.2637 67.7103 21.3725 67.7707 21.5177C67.8342 21.6628 67.866 21.8442 67.866 22.062V23.5225H67.3081V22.1028C67.3081 21.9818 67.2915 21.882 67.2582 21.8034C67.2249 21.7218 67.1735 21.6628 67.104 21.6265C67.0344 21.5872 66.9498 21.5691 66.85 21.5721C66.7683 21.5721 66.6927 21.5857 66.6232 21.6129C66.5567 21.6371 66.4977 21.6734 66.4463 21.7218C66.3979 21.7671 66.3586 21.8201 66.3284 21.8805C66.3012 21.941 66.2875 22.0075 66.2875 22.0801V23.5225H66.0109C65.9564 23.5225 65.905 23.5225 65.8567 23.5225C65.8113 23.5225 65.769 23.5225 65.7297 23.5225ZM69.4416 23.5678C69.245 23.5678 69.0666 23.5134 68.9064 23.4045C68.7461 23.2957 68.6176 23.1475 68.5208 22.96C68.4241 22.7726 68.3757 22.5594 68.3757 22.3205C68.3757 22.0816 68.4241 21.8684 68.5208 21.681C68.6176 21.4935 68.7491 21.3468 68.9154 21.241C69.0817 21.1352 69.2692 21.0822 69.4779 21.0822C69.5988 21.0822 69.7092 21.1004 69.809 21.1367C69.9088 21.1699 69.9964 21.2183 70.072 21.2818C70.1476 21.3453 70.2096 21.4179 70.258 21.4995C70.3094 21.5812 70.3442 21.6689 70.3623 21.7626L70.2399 21.7309V21.1321H70.8023V23.5225H70.2353V22.951L70.3669 22.9283C70.3457 23.0099 70.3064 23.0901 70.2489 23.1687C70.1945 23.2443 70.125 23.3123 70.0403 23.3728C69.9586 23.4302 69.8664 23.4771 69.7636 23.5134C69.6638 23.5497 69.5565 23.5678 69.4416 23.5678ZM69.5958 23.0734C69.7258 23.0734 69.8407 23.0417 69.9405 22.9782C70.0403 22.9147 70.1174 22.827 70.1718 22.7151C70.2293 22.6002 70.258 22.4687 70.258 22.3205C70.258 22.1754 70.2293 22.0468 70.1718 21.935C70.1174 21.8231 70.0403 21.7354 69.9405 21.6719C69.8407 21.6084 69.7258 21.5766 69.5958 21.5766C69.4658 21.5766 69.3509 21.6084 69.2511 21.6719C69.1543 21.7354 69.0787 21.8231 69.0243 21.935C68.9699 22.0468 68.9426 22.1754 68.9426 22.3205C68.9426 22.4687 68.9699 22.6002 69.0243 22.7151C69.0787 22.827 69.1543 22.9147 69.2511 22.9782C69.3509 23.0417 69.4658 23.0734 69.5958 23.0734Z" fill="#004E2B"/>
</svg>
