<svg width="151" height="45" viewBox="0 0 151 45" fill="none" xmlns="http://www.w3.org/2000/svg">
<g clip-path="url(#clip0_323_25987)">
<g clip-path="url(#clip1_323_25987)">
<path d="M41.838 42.0271H16.5334C7.04958 42.0271 0.727051 35.7045 0.727051 26.2207V0.916138H26.0171C35.5009 0.916138 41.8235 7.23866 41.8235 16.7224V42.0271H41.838Z" fill="white"/>
<path d="M22.856 15.1432H26.0172C31.9192 15.1432 35.501 18.7395 35.501 24.627V35.6915H32.3397C26.5248 35.6915 22.856 31.9791 22.856 26.2077V15.1432Z" fill="#00DD39"/>
<path d="M7.04346 7.24091H19.6885V35.6923H16.5272C10.6543 35.6923 7.04346 32.1395 7.04346 26.2085V7.24091Z" fill="#004E2B"/>
<path d="M51.3228 35.708V23.8315H53.6574L57.6453 29.7915L61.6911 23.8315H63.9678V35.6935H61.4881V27.9934L58.1818 32.8223H57.0942L53.788 28.0079V35.708H51.3228Z" fill="white"/>
<path d="M65.5044 31.1986C65.5044 28.5594 67.5346 26.5147 70.1883 26.5147C71.6819 26.5147 72.7115 27.1383 73.277 27.8633L73.335 26.6742H75.5537V35.694H73.335L73.277 34.5049C72.7115 35.2299 71.6819 35.8535 70.1883 35.8535C67.5346 35.868 65.5044 33.8378 65.5044 31.1986ZM70.5363 33.9248C72.0734 33.9248 73.2625 32.7502 73.2625 31.1986C73.2625 29.676 72.0734 28.4724 70.5363 28.4724C68.9992 28.4724 67.8101 29.676 67.8101 31.1986C67.8101 32.7502 68.9992 33.9248 70.5363 33.9248Z" fill="white"/>
<path d="M78.789 28.7914H76.7153V26.6887H78.789V24.238H81.1237V26.6887H84.4155V28.7914H81.1237V31.8802C81.1237 33.0258 81.7037 33.6058 82.8493 33.6058H84.4155V35.7085H82.4433C80.0361 35.7085 78.789 34.4614 78.789 32.0542V28.7914Z" fill="white"/>
<path d="M85.4165 31.1986C85.4165 28.4144 87.4902 26.5147 90.1294 26.5147C92.9716 26.5147 94.8133 28.4144 94.8133 31.1986C94.8133 31.5321 94.8133 31.6626 94.7843 32.1702H87.8672C88.1282 33.1563 88.9548 33.9538 90.4484 33.9538C91.5795 33.9538 92.2466 33.6493 92.8846 32.9677L94.3492 34.4324C93.5372 35.1719 92.3771 35.897 90.3469 35.897C87.1711 35.868 85.4165 33.9683 85.4165 31.1986ZM92.4641 30.256C92.3336 29.3134 91.5795 28.4434 90.2309 28.4434C88.7518 28.4434 88.0267 29.3279 87.7947 30.256H92.4641Z" fill="white"/>
<path d="M96.3208 35.7058V30.5869C96.3208 28.2087 97.8434 26.6861 100.222 26.6861H102.324V28.7888H100.758C99.2645 28.7888 98.6555 29.3978 98.6555 30.8914V35.7058H96.3208Z" fill="white"/>
<path d="M103.44 23.5269C103.44 22.7438 103.962 22.2073 104.847 22.2073C105.731 22.2073 106.253 22.7438 106.253 23.5269C106.253 24.3099 105.731 24.8465 104.847 24.8465C103.962 24.861 103.44 24.3099 103.44 23.5269ZM103.672 35.7079V26.7026H106.007V35.7079H103.672Z" fill="white"/>
<path d="M107.557 31.1986C107.557 28.5594 109.587 26.5147 112.241 26.5147C113.735 26.5147 114.764 27.1383 115.33 27.8633L115.388 26.6742H117.606V35.694H115.388L115.33 34.5049C114.764 35.2299 113.735 35.8535 112.241 35.8535C109.587 35.868 107.557 33.8378 107.557 31.1986ZM112.589 33.9248C114.126 33.9248 115.315 32.7502 115.315 31.1986C115.315 29.676 114.126 28.4724 112.589 28.4724C111.052 28.4724 109.863 29.676 109.863 31.1986C109.863 32.7502 111.037 33.9248 112.589 33.9248Z" fill="white"/>
<path d="M119.542 35.7083V23.1648H121.876V35.7083H119.542Z" fill="white"/>
<path d="M123.084 34.3452L124.549 32.8806C125.231 33.5621 126.521 33.9682 127.768 33.9682C129.059 33.9682 129.567 33.6926 129.567 33.2286C129.567 32.7211 129.059 32.489 127.072 32.112C124.752 31.677 123.374 30.9664 123.374 29.2698C123.374 27.5006 125.187 26.5291 127.522 26.5291C129.494 26.5291 130.915 27.1961 131.713 27.9937L130.248 29.4583C129.712 28.9218 128.74 28.4432 127.478 28.4432C126.333 28.4432 125.695 28.7187 125.695 29.1828C125.695 29.6613 126.115 29.8643 128.29 30.2994C130.393 30.7199 131.887 31.387 131.887 33.1416C131.887 34.9107 130.277 35.8823 127.594 35.8823C125.405 35.8678 123.969 35.2298 123.084 34.3452Z" fill="white"/>
<path d="M59.5594 19.1036V14.3617H53.8025V19.1036H51.3228V7.24158H53.8025V12.085H59.5594V7.24158H62.0391V19.1036H59.5594Z" fill="white"/>
<path d="M63.5767 14.5951C63.5767 11.8109 65.6503 9.91125 68.2896 9.91125C71.1318 9.91125 72.9734 11.8109 72.9734 14.5951C72.9734 14.9287 72.9734 15.0592 72.9444 15.5667H66.0274C66.2884 16.5528 67.115 17.3504 68.6086 17.3504C69.7397 17.3504 70.4067 17.0458 71.0448 16.3643L72.5094 17.8289C71.6973 18.5685 70.5372 19.2935 68.5071 19.2935C65.3168 19.279 63.5767 17.3794 63.5767 14.5951ZM70.6242 13.6671C70.4937 12.7245 69.7397 11.8544 68.3911 11.8544C66.9119 11.8544 66.1869 12.739 65.9549 13.6671H70.6242Z" fill="white"/>
<path d="M74.3071 6.93692C74.3071 6.15385 74.8292 5.61731 75.7137 5.61731C76.5983 5.61731 77.1204 6.15385 77.1204 6.93692C77.1204 7.71998 76.5983 8.25653 75.7137 8.25653C74.8292 8.25653 74.3071 7.71998 74.3071 6.93692ZM74.5391 19.1034V10.1127H76.8738V19.1179H74.5391V19.1034Z" fill="white"/>
<path d="M86.1127 6.56042H88.4619V19.104H86.2432L86.1852 17.9149C85.6197 18.6399 84.5901 19.2635 83.0965 19.2635C80.4573 19.2635 78.4126 17.2333 78.4126 14.5796C78.4126 11.9259 80.4428 9.8957 83.0965 9.8957C84.5321 9.8957 85.5327 10.4757 86.1127 11.1718V6.56042ZM83.459 17.3203C84.9961 17.3203 86.1852 16.1457 86.1852 14.5941C86.1852 13.0715 84.9961 11.8679 83.459 11.8679C81.9219 11.8679 80.7328 13.0715 80.7328 14.5941C80.7328 16.1602 81.9074 17.3203 83.459 17.3203Z" fill="white"/>
<path d="M89.9204 14.5951C89.9204 11.8109 91.9941 9.91125 94.6333 9.91125C97.4755 9.91125 99.3172 11.8109 99.3172 14.5951C99.3172 14.9287 99.3172 15.0592 99.2882 15.5667H92.3711C92.6321 16.5528 93.4587 17.3504 94.9523 17.3504C96.0834 17.3504 96.7505 17.0458 97.3885 16.3643L98.8532 17.8289C98.0411 18.5685 96.881 19.2935 94.8508 19.2935C91.6751 19.279 89.9204 17.3794 89.9204 14.5951ZM96.968 13.6671C96.8375 12.7245 96.0834 11.8544 94.7348 11.8544C93.2557 11.8544 92.5306 12.739 92.2986 13.6671H96.968Z" fill="white"/>
<path d="M100.833 19.104V6.56042H103.167V19.104H100.833Z" fill="white"/>
<path d="M107.451 11.1863C108.031 10.4903 109.032 9.9102 110.467 9.9102C113.107 9.9102 115.151 11.9404 115.151 14.5941C115.151 17.2478 113.121 19.278 110.467 19.278C108.974 19.278 107.944 18.6544 107.379 17.9294L107.321 19.1185H105.102V6.56042H107.451V11.1863ZM110.105 11.8679C108.568 11.8679 107.379 13.0715 107.379 14.5941C107.379 16.1602 108.568 17.3203 110.105 17.3203C111.642 17.3203 112.831 16.1457 112.831 14.5941C112.831 13.0715 111.657 11.8679 110.105 11.8679Z" fill="white"/>
<path d="M116.217 14.5951C116.217 11.8109 118.291 9.91125 120.93 9.91125C123.772 9.91125 125.614 11.8109 125.614 14.5951C125.614 14.9287 125.614 15.0592 125.585 15.5667H118.668C118.929 16.5528 119.756 17.3504 121.249 17.3504C122.38 17.3504 123.047 17.0458 123.685 16.3643L125.15 17.8289C124.338 18.5685 123.178 19.2935 121.148 19.2935C117.957 19.279 116.217 17.3794 116.217 14.5951ZM123.265 13.6671C123.134 12.7245 122.38 11.8544 121.032 11.8544C119.553 11.8544 118.827 12.739 118.595 13.6671H123.265Z" fill="white"/>
<path d="M127.102 19.1042V13.9853C127.102 11.6071 128.625 10.0845 131.003 10.0845H133.106V12.1871H131.539C130.046 12.1871 129.437 12.7962 129.437 14.2898V19.1042H127.102Z" fill="white"/>
<path d="M134.368 21.3366L135.833 19.872C136.558 20.597 137.413 21.0611 138.936 21.0611C140.459 21.0611 141.445 20.075 141.445 18.5524V17.9868C140.865 18.6829 139.864 19.2629 138.429 19.2629C135.789 19.2629 133.745 17.2327 133.745 14.579C133.745 11.9253 135.775 9.89514 138.429 9.89514C139.922 9.89514 140.952 10.5187 141.517 11.2438L141.575 10.0547H143.794V18.3203C143.794 21.2061 141.822 23.0042 138.951 23.0042C136.717 23.0042 135.209 22.2647 134.368 21.3366ZM138.777 17.3198C140.314 17.3198 141.503 16.1452 141.503 14.5935C141.503 13.0709 140.314 11.8673 138.777 11.8673C137.239 11.8673 136.05 13.0709 136.05 14.5935C136.05 16.1597 137.225 17.3198 138.777 17.3198Z" fill="white"/>
</g>
</g>
<defs>
<clipPath id="clip0_323_25987">
<rect width="143.091" height="41.1109" fill="white" transform="translate(0.708496 0.916504)"/>
</clipPath>
<clipPath id="clip1_323_25987">
<rect width="143.054" height="41.1109" fill="white" transform="translate(0.727051 0.916504)"/>
</clipPath>
</defs>
</svg>
