<svg width="144" height="42" viewBox="0 0 144 42" fill="none" xmlns="http://www.w3.org/2000/svg">
<g clip-path="url(#clip0_871_23336)">
<path d="M40.9995 41.3579H15.9029C6.49711 41.3579 0.226562 35.0874 0.226562 25.6815V0.584961H25.3088C34.7146 0.584961 40.9851 6.85551 40.9851 16.2613V41.3579H40.9995Z" fill="#004E2B"/>
<path d="M22.3555 14.6431H25.5167C31.4187 14.6431 35.0005 18.2394 35.0005 24.1269V35.1913H31.8393C26.0243 35.1913 22.3555 31.479 22.3555 25.7075V14.6431Z" fill="#00DD39"/>
<path d="M6.54297 6.74072H19.188V35.1921H16.0268C10.1538 35.1921 6.54297 31.6393 6.54297 25.7083V6.74072Z" fill="white"/>
<path d="M50.8223 35.2075V23.3311H53.157L57.1448 29.291L61.1906 23.3311H63.4673V35.193H60.9876V27.4929L57.6813 32.3218H56.5937L53.2875 27.5074V35.2075H50.8223Z" fill="#004E2B"/>
<path d="M65.0039 30.6985C65.0039 28.0593 67.0341 26.0146 69.6878 26.0146C71.1814 26.0146 72.211 26.6382 72.7765 27.3633L72.8346 26.1742H75.0532V35.1939H72.8346L72.7765 34.0048C72.211 34.7299 71.1814 35.3534 69.6878 35.3534C67.0341 35.3679 65.0039 33.3378 65.0039 30.6985ZM70.0358 33.4248C71.5729 33.4248 72.762 32.2502 72.762 30.6985C72.762 29.1759 71.5729 27.9723 70.0358 27.9723C68.4987 27.9723 67.3096 29.1759 67.3096 30.6985C67.3096 32.2502 68.4987 33.4248 70.0358 33.4248Z" fill="#004E2B"/>
<path d="M78.2885 28.2912H76.2148V26.1885H78.2885V23.7378H80.6232V26.1885H83.915V28.2912H80.6232V31.3799C80.6232 32.5255 81.2033 33.1056 82.3489 33.1056H83.915V35.2082H81.9428C79.5356 35.2082 78.2885 33.9611 78.2885 31.5539V28.2912Z" fill="#004E2B"/>
<path d="M84.916 30.6985C84.916 27.9143 86.9897 26.0146 89.6289 26.0146C92.4711 26.0146 94.3128 27.9143 94.3128 30.6985C94.3128 31.0321 94.3128 31.1626 94.2838 31.6701H87.3667C87.6277 32.6562 88.4543 33.4538 89.9479 33.4538C91.079 33.4538 91.7461 33.1492 92.3841 32.4677L93.8488 33.9323C93.0367 34.6719 91.8766 35.3969 89.8464 35.3969C86.6707 35.3679 84.916 33.4683 84.916 30.6985ZM91.9636 29.756C91.8331 28.8134 91.079 27.9433 89.7304 27.9433C88.2513 27.9433 87.5262 28.8279 87.2942 29.756H91.9636Z" fill="#004E2B"/>
<path d="M95.8203 35.2058V30.0869C95.8203 27.7087 97.3429 26.186 99.7211 26.186H101.824V28.2887H100.258C98.7641 28.2887 98.155 28.8978 98.155 30.3914V35.2058H95.8203Z" fill="#004E2B"/>
<path d="M102.939 23.0266C102.939 22.2436 103.461 21.707 104.346 21.707C105.231 21.707 105.753 22.2436 105.753 23.0266C105.753 23.8097 105.231 24.3462 104.346 24.3462C103.461 24.3608 102.939 23.8097 102.939 23.0266ZM103.171 35.2077V26.2024H105.506V35.2077H103.171Z" fill="#004E2B"/>
<path d="M107.057 30.6985C107.057 28.0593 109.087 26.0146 111.741 26.0146C113.234 26.0146 114.264 26.6382 114.829 27.3633L114.887 26.1742H117.106V35.1939H114.887L114.829 34.0048C114.264 34.7299 113.234 35.3534 111.741 35.3534C109.087 35.3679 107.057 33.3378 107.057 30.6985ZM112.089 33.4248C113.626 33.4248 114.815 32.2502 114.815 30.6985C114.815 29.1759 113.626 27.9723 112.089 27.9723C110.551 27.9723 109.362 29.1759 109.362 30.6985C109.362 32.2502 110.537 33.4248 112.089 33.4248Z" fill="#004E2B"/>
<path d="M119.041 35.2081V22.6646H121.376V35.2081H119.041Z" fill="#004E2B"/>
<path d="M122.584 33.845L124.049 32.3803C124.73 33.0619 126.021 33.4679 127.268 33.4679C128.558 33.4679 129.066 33.1924 129.066 32.7284C129.066 32.2208 128.558 31.9888 126.572 31.6118C124.252 31.1767 122.874 30.4662 122.874 28.7695C122.874 27.0004 124.687 26.0288 127.021 26.0288C128.994 26.0288 130.415 26.6959 131.212 27.4934L129.748 28.9581C129.211 28.4215 128.239 27.943 126.978 27.943C125.832 27.943 125.194 28.2185 125.194 28.6825C125.194 29.1611 125.615 29.3641 127.79 29.7991C129.893 30.2197 131.386 30.8867 131.386 32.6414C131.386 34.4105 129.777 35.3821 127.094 35.3821C124.904 35.3676 123.469 34.7295 122.584 33.845Z" fill="#004E2B"/>
<path d="M59.059 18.6032V13.8613H53.302V18.6032H50.8223V6.74121H53.302V11.5846H59.059V6.74121H61.5387V18.6032H59.059Z" fill="#004E2B"/>
<path d="M63.0762 14.095C63.0762 11.3108 65.1498 9.41113 67.7891 9.41113C70.6313 9.41113 72.473 11.3108 72.473 14.095C72.473 14.4285 72.473 14.5591 72.444 15.0666H65.5269C65.7879 16.0527 66.6145 16.8502 68.1081 16.8502C69.2392 16.8502 69.9062 16.5457 70.5443 15.8642L72.0089 17.3288C71.1968 18.0683 70.0367 18.7934 68.0066 18.7934C64.8163 18.7789 63.0762 16.8793 63.0762 14.095ZM70.1238 13.1669C69.9932 12.2244 69.2392 11.3543 67.8906 11.3543C66.4115 11.3543 65.6864 12.2389 65.4544 13.1669H70.1238Z" fill="#004E2B"/>
<path d="M73.8066 6.4368C73.8066 5.65373 74.3287 5.11719 75.2133 5.11719C76.0978 5.11719 76.6199 5.65373 76.6199 6.4368C76.6199 7.21986 76.0978 7.75641 75.2133 7.75641C74.3287 7.75641 73.8066 7.21986 73.8066 6.4368ZM74.0387 18.6033V9.61256H76.3734V18.6178H74.0387V18.6033Z" fill="#004E2B"/>
<path d="M85.6122 6.06055H87.9614V18.6041H85.7428L85.6848 17.415C85.1192 18.14 84.0896 18.7636 82.596 18.7636C79.9568 18.7636 77.9121 16.7334 77.9121 14.0797C77.9121 11.426 79.9423 9.39582 82.596 9.39582C84.0316 9.39582 85.0322 9.97587 85.6122 10.6719V6.06055ZM82.9585 16.8204C84.4957 16.8204 85.6848 15.6458 85.6848 14.0942C85.6848 12.5716 84.4957 11.368 82.9585 11.368C81.4214 11.368 80.2323 12.5716 80.2323 14.0942C80.2323 15.6603 81.4069 16.8204 82.9585 16.8204Z" fill="#004E2B"/>
<path d="M89.4199 14.095C89.4199 11.3108 91.4936 9.41113 94.1328 9.41113C96.975 9.41113 98.8167 11.3108 98.8167 14.095C98.8167 14.4285 98.8167 14.5591 98.7877 15.0666H91.8706C92.1317 16.0527 92.9582 16.8502 94.4518 16.8502C95.5829 16.8502 96.25 16.5457 96.888 15.8642L98.3527 17.3288C97.5406 18.0683 96.3805 18.7934 94.3503 18.7934C91.1746 18.7789 89.4199 16.8793 89.4199 14.095ZM96.4675 13.1669C96.337 12.2244 95.5829 11.3543 94.2343 11.3543C92.7552 11.3543 92.0301 12.2389 91.7981 13.1669H96.4675Z" fill="#004E2B"/>
<path d="M100.332 18.6041V6.06055H102.667V18.6041H100.332Z" fill="#004E2B"/>
<path d="M106.951 10.6864C107.531 9.99037 108.531 9.41032 109.967 9.41032C112.606 9.41032 114.651 11.4405 114.651 14.0942C114.651 16.7479 112.621 18.7781 109.967 18.7781C108.473 18.7781 107.444 18.1546 106.878 17.4295L106.82 18.6186H104.602V6.06055H106.951V10.6864ZM109.604 11.368C108.067 11.368 106.878 12.5716 106.878 14.0942C106.878 15.6603 108.067 16.8204 109.604 16.8204C111.142 16.8204 112.331 15.6458 112.331 14.0942C112.331 12.5716 111.156 11.368 109.604 11.368Z" fill="#004E2B"/>
<path d="M115.717 14.095C115.717 11.3108 117.79 9.41113 120.43 9.41113C123.272 9.41113 125.114 11.3108 125.114 14.095C125.114 14.4285 125.114 14.5591 125.085 15.0666H118.167C118.429 16.0527 119.255 16.8502 120.749 16.8502C121.88 16.8502 122.547 16.5457 123.185 15.8642L124.65 17.3288C123.837 18.0683 122.677 18.7934 120.647 18.7934C117.457 18.7789 115.717 16.8793 115.717 14.095ZM122.764 13.1669C122.634 12.2244 121.88 11.3543 120.531 11.3543C119.052 11.3543 118.327 12.2389 118.095 13.1669H122.764Z" fill="#004E2B"/>
<path d="M126.602 18.6042V13.4853C126.602 11.1071 128.124 9.58447 130.502 9.58447H132.605V11.6871H131.039C129.545 11.6871 128.936 12.2962 128.936 13.7898V18.6042H126.602Z" fill="#004E2B"/>
<path d="M133.868 20.8365L135.332 19.3718C136.057 20.0969 136.913 20.5609 138.436 20.5609C139.958 20.5609 140.944 19.5749 140.944 18.0522V17.4867C140.364 18.1827 139.364 18.7628 137.928 18.7628C135.289 18.7628 133.244 16.7326 133.244 14.0789C133.244 11.4252 135.274 9.39502 137.928 9.39502C139.422 9.39502 140.451 10.0186 141.017 10.7436L141.075 9.55453H143.293V17.8202C143.293 20.706 141.321 22.5041 138.45 22.5041C136.217 22.5041 134.709 21.7645 133.868 20.8365ZM138.276 16.8196C139.813 16.8196 141.002 15.645 141.002 14.0934C141.002 12.5708 139.813 11.3672 138.276 11.3672C136.739 11.3672 135.55 12.5708 135.55 14.0934C135.55 15.6595 136.724 16.8196 138.276 16.8196Z" fill="#004E2B"/>
</g>
<defs>
<clipPath id="clip0_871_23336">
<rect width="143.054" height="41.1109" fill="white" transform="translate(0.226562 0.416504)"/>
</clipPath>
</defs>
</svg>
