<svg width="95" height="29" viewBox="0 0 95 29" fill="none" xmlns="http://www.w3.org/2000/svg">
<path d="M27.1622 27.5265H10.5774C4.36161 27.5265 0.217773 23.3826 0.217773 17.1669V0.582031H16.7931C23.0089 0.582031 27.1527 4.72587 27.1527 10.9416V27.5265H27.1622Z" fill="white" fill-opacity="0.9"/>
<path d="M14.7192 9.90625H16.7912C20.6594 9.90625 23.0069 12.2633 23.0069 16.122V23.3737H20.935C17.1238 23.3737 14.7192 20.9406 14.7192 17.158V9.90625Z" fill="#00DD39"/>
<path d="M4.36084 4.72559H12.6485V23.3728H10.5766C6.72739 23.3728 4.36084 21.0443 4.36084 17.1571V4.72559Z" fill="#004E2B"/>
<path d="M39.4668 13.6063V10.5805H35.7933V13.6063H34.2109V6.03711H35.7933V9.12773H39.4668V6.03711H41.0492V13.6063H39.4668Z" fill="white" fill-opacity="0.9"/>
<path d="M42.0312 10.7281C42.0312 8.95145 43.3545 7.73926 45.0386 7.73926C46.8522 7.73926 48.0274 8.95145 48.0274 10.7281C48.0274 10.9409 48.0274 11.0242 48.0089 11.3481H43.5951C43.7616 11.9773 44.2891 12.4862 45.2422 12.4862C45.9639 12.4862 46.3896 12.2919 46.7967 11.857L47.7313 12.7916C47.2131 13.2635 46.4729 13.7262 45.1774 13.7262C43.1417 13.7169 42.0312 12.5047 42.0312 10.7281ZM46.5284 10.1359C46.4451 9.53441 45.9639 8.97921 45.1034 8.97921C44.1595 8.97921 43.6969 9.54366 43.5488 10.1359H46.5284Z" fill="white" fill-opacity="0.9"/>
<path d="M48.8784 5.84205C48.8784 5.34237 49.2115 5 49.776 5C50.3404 5 50.6736 5.34237 50.6736 5.84205C50.6736 6.34174 50.3404 6.68411 49.776 6.68411C49.2115 6.68411 48.8784 6.34174 48.8784 5.84205ZM49.0265 13.6056V7.86854H50.5163V13.6149H49.0265V13.6056Z" fill="white" fill-opacity="0.9"/>
<path d="M56.4111 5.60254H57.9101V13.6067H56.4944L56.4574 12.8479C56.0965 13.3106 55.4395 13.7085 54.4864 13.7085C52.8023 13.7085 51.4976 12.413 51.4976 10.7196C51.4976 9.02628 52.793 7.73081 54.4864 7.73081C55.4025 7.73081 56.041 8.10094 56.4111 8.5451V5.60254ZM54.7177 12.4685C55.6986 12.4685 56.4574 11.719 56.4574 10.7289C56.4574 9.75729 55.6986 8.98926 54.7177 8.98926C53.7369 8.98926 52.9781 9.75729 52.9781 10.7289C52.9781 11.7283 53.7276 12.4685 54.7177 12.4685Z" fill="white" fill-opacity="0.9"/>
<path d="M58.8442 10.7281C58.8442 8.95145 60.1675 7.73926 61.8516 7.73926C63.6652 7.73926 64.8404 8.95145 64.8404 10.7281C64.8404 10.9409 64.8404 11.0242 64.8219 11.3481H60.4081C60.5746 11.9773 61.1021 12.4862 62.0552 12.4862C62.7769 12.4862 63.2026 12.2919 63.6097 11.857L64.5443 12.7916C64.0261 13.2635 63.2858 13.7262 61.9904 13.7262C59.9639 13.7169 58.8442 12.5047 58.8442 10.7281ZM63.3414 10.1359C63.2581 9.53441 62.7769 8.97921 61.9164 8.97921C60.9725 8.97921 60.5098 9.54366 60.3618 10.1359H63.3414Z" fill="white" fill-opacity="0.9"/>
<path d="M65.8018 13.6067V5.60254H67.2916V13.6067H65.8018Z" fill="white" fill-opacity="0.9"/>
<path d="M70.0288 8.55436C70.399 8.1102 71.0374 7.74006 71.9535 7.74006C73.6376 7.74006 74.9424 9.03553 74.9424 10.7289C74.9424 12.4223 73.6469 13.7177 71.9535 13.7177C71.0004 13.7177 70.3434 13.3198 69.9826 12.8572L69.9455 13.6159H68.5298V5.60254H70.0288V8.55436ZM71.7222 8.98927C70.7413 8.98927 69.9826 9.75729 69.9826 10.7289C69.9826 11.7283 70.7413 12.4685 71.7222 12.4685C72.703 12.4685 73.4618 11.719 73.4618 10.7289C73.4618 9.75729 72.7123 8.98927 71.7222 8.98927Z" fill="white" fill-opacity="0.9"/>
<path d="M75.6191 10.7281C75.6191 8.95145 76.9424 7.73926 78.6265 7.73926C80.4401 7.73926 81.6153 8.95145 81.6153 10.7281C81.6153 10.9409 81.6153 11.0242 81.5968 11.3481H77.183C77.3495 11.9773 77.877 12.4862 78.83 12.4862C79.5518 12.4862 79.9775 12.2919 80.3846 11.857L81.3192 12.7916C80.801 13.2635 80.0607 13.7262 78.7653 13.7262C76.7295 13.7169 75.6191 12.5047 75.6191 10.7281ZM80.1163 10.1359C80.033 9.53441 79.5518 8.97921 78.6912 8.97921C77.7474 8.97921 77.2847 9.54366 77.1367 10.1359H80.1163Z" fill="white" fill-opacity="0.9"/>
<path d="M82.5688 13.6052V10.3388C82.5688 8.82121 83.5405 7.84961 85.058 7.84961H86.3997V9.19134H85.4004C84.4473 9.19134 84.0586 9.57999 84.0586 10.5331V13.6052H82.5688Z" fill="white" fill-opacity="0.9"/>
<path d="M87.2045 15.0323L88.1391 14.0977C88.6018 14.5604 89.1477 14.8565 90.1193 14.8565C91.0909 14.8565 91.7202 14.2273 91.7202 13.2557V12.8948C91.35 13.339 90.7116 13.7091 89.7955 13.7091C88.1114 13.7091 86.8066 12.4136 86.8066 10.7203C86.8066 9.02691 88.1021 7.73145 89.7955 7.73145C90.7486 7.73145 91.4056 8.12934 91.7664 8.59201L91.8034 7.83323H93.2192V13.1076C93.2192 14.9491 91.9608 16.0965 90.1286 16.0965C88.7036 16.0965 87.7412 15.6246 87.2045 15.0323ZM90.0176 12.4692C90.9984 12.4692 91.7572 11.7196 91.7572 10.7295C91.7572 9.75793 90.9984 8.9899 90.0176 8.9899C89.0367 8.9899 88.2779 9.75793 88.2779 10.7295C88.2779 11.7289 89.0274 12.4692 90.0176 12.4692Z" fill="white" fill-opacity="0.9"/>
<path d="M34.2173 24.726V17.1475H35.7071L38.2517 20.9506L40.8334 17.1475H42.2862V24.7167H40.7039V19.8032L38.5941 22.8845H37.9001L35.7904 19.8124V24.726H34.2173Z" fill="white" fill-opacity="0.9"/>
<path d="M43.2676 21.8472C43.2676 20.1631 44.563 18.8584 46.2564 18.8584C47.2095 18.8584 47.8665 19.2563 48.2274 19.719L48.2644 18.9602H49.6801V24.7158H48.2644L48.2274 23.957C47.8665 24.4197 47.2095 24.8176 46.2564 24.8176C44.563 24.8268 43.2676 23.5313 43.2676 21.8472ZM46.4785 23.5869C47.4593 23.5869 48.2181 22.8373 48.2181 21.8472C48.2181 20.8756 47.4593 20.1076 46.4785 20.1076C45.4976 20.1076 44.7389 20.8756 44.7389 21.8472C44.7389 22.8373 45.4976 23.5869 46.4785 23.5869Z" fill="white" fill-opacity="0.9"/>
<path d="M51.7431 20.3098H50.4199V18.9681H51.7431V17.4043H53.2329V18.9681H55.3334V20.3098H53.2329V22.2808C53.2329 23.0118 53.6031 23.382 54.3341 23.382H55.3334V24.7237H54.075C52.5389 24.7237 51.7431 23.9279 51.7431 22.3919V20.3098Z" fill="white" fill-opacity="0.9"/>
<path d="M55.9717 21.8472C55.9717 20.0706 57.2949 18.8584 58.979 18.8584C60.7927 18.8584 61.9678 20.0706 61.9678 21.8472C61.9678 22.0601 61.9678 22.1433 61.9493 22.4672H57.5355C57.7021 23.0964 58.2295 23.6054 59.1826 23.6054C59.9044 23.6054 60.33 23.411 60.7372 22.9761L61.6717 23.9107C61.1536 24.3826 60.4133 24.8453 59.1178 24.8453C57.0913 24.8268 55.9717 23.6146 55.9717 21.8472ZM60.4688 21.2458C60.3855 20.6443 59.9044 20.0891 59.0438 20.0891C58.1 20.0891 57.6373 20.6535 57.4892 21.2458H60.4688Z" fill="white" fill-opacity="0.9"/>
<path d="M62.9302 24.7253V21.4589C62.9302 19.9413 63.9018 18.9697 65.4193 18.9697H66.7611V20.3115H65.7617C64.8086 20.3115 64.42 20.7001 64.42 21.6532V24.7253H62.9302Z" fill="white" fill-opacity="0.9"/>
<path d="M67.4736 16.9524C67.4736 16.4527 67.8068 16.1104 68.3712 16.1104C68.9357 16.1104 69.2688 16.4527 69.2688 16.9524C69.2688 17.4521 68.9357 17.7945 68.3712 17.7945C67.8068 17.8037 67.4736 17.4521 67.4736 16.9524ZM67.6217 24.7252V18.9789H69.1115V24.7252H67.6217Z" fill="white" fill-opacity="0.9"/>
<path d="M70.1021 21.8472C70.1021 20.1631 71.3975 18.8584 73.0909 18.8584C74.044 18.8584 74.701 19.2563 75.0618 19.719L75.0989 18.9602H76.5146V24.7158H75.0989L75.0618 23.957C74.701 24.4197 74.044 24.8176 73.0909 24.8176C71.3975 24.8268 70.1021 23.5313 70.1021 21.8472ZM73.313 23.5869C74.2938 23.5869 75.0526 22.8373 75.0526 21.8472C75.0526 20.8756 74.2938 20.1076 73.313 20.1076C72.3321 20.1076 71.5733 20.8756 71.5733 21.8472C71.5733 22.8373 72.3229 23.5869 73.313 23.5869Z" fill="white" fill-opacity="0.9"/>
<path d="M77.7461 24.7268V16.7227H79.2359V24.7268H77.7461Z" fill="white" fill-opacity="0.9"/>
<path d="M80.0098 23.8586L80.9444 22.9241C81.3793 23.359 82.2028 23.6181 82.9986 23.6181C83.8221 23.6181 84.146 23.4422 84.146 23.1461C84.146 22.8223 83.8221 22.6742 82.5544 22.4336C81.0739 22.156 80.1948 21.7026 80.1948 20.62C80.1948 19.4911 81.3515 18.8711 82.8413 18.8711C84.0997 18.8711 85.0066 19.2967 85.5155 19.8057L84.5809 20.7403C84.2385 20.3979 83.6186 20.0925 82.8135 20.0925C82.0825 20.0925 81.6754 20.2683 81.6754 20.5645C81.6754 20.8698 81.9437 20.9994 83.3317 21.277C84.6735 21.5453 85.6266 21.971 85.6266 23.0906C85.6266 24.2195 84.5994 24.8395 82.8876 24.8395C81.4903 24.8303 80.5742 24.4231 80.0098 23.8586Z" fill="white" fill-opacity="0.9"/>
</svg>
