<svg width="26" height="26" viewBox="0 0 26 26" fill="none" xmlns="http://www.w3.org/2000/svg">
<path d="M4.42643 18.9577V18.2535C4.42643 17.8852 4.59977 17.5385 4.8706 17.376C6.70143 16.2818 8.79226 15.7077 10.9264 15.7077C10.9589 15.7077 10.9806 15.7077 11.0131 15.7185C11.1214 14.9602 11.3381 14.2343 11.6523 13.5735C11.4139 13.5518 11.1756 13.541 10.9264 13.541C8.30477 13.541 5.85643 14.2668 3.7656 15.5127C2.81227 16.076 2.25977 17.1377 2.25977 18.2535V21.1243H12.2914C11.8364 20.4743 11.4789 19.7377 11.2406 18.9577H4.42643Z" fill="#004E2B"/>
<path d="M10.9264 12.4577C13.3206 12.4577 15.2598 10.5185 15.2598 8.12435C15.2598 5.73018 13.3206 3.79102 10.9264 3.79102C8.53227 3.79102 6.5931 5.73018 6.5931 8.12435C6.5931 10.5185 8.53227 12.4577 10.9264 12.4577ZM10.9264 5.95768C12.1181 5.95768 13.0931 6.93268 13.0931 8.12435C13.0931 9.31602 12.1181 10.291 10.9264 10.291C9.73477 10.291 8.75977 9.31602 8.75977 8.12435C8.75977 6.93268 9.73477 5.95768 10.9264 5.95768Z" fill="#004E2B"/>
<path d="M22.5723 16.791C22.5723 16.5527 22.5398 16.336 22.5073 16.1085L23.7423 15.0143L22.6589 13.1402L21.0881 13.671C20.7414 13.3785 20.3514 13.151 19.9181 12.9885L19.5931 11.3743H17.4264L17.1014 12.9885C16.6681 13.151 16.2781 13.3785 15.9314 13.671L14.3606 13.1402L13.2773 15.0143L14.5123 16.1085C14.4798 16.336 14.4473 16.5527 14.4473 16.791C14.4473 17.0293 14.4798 17.246 14.5123 17.4735L13.2773 18.5677L14.3606 20.4418L15.9314 19.911C16.2781 20.2035 16.6681 20.431 17.1014 20.5935L17.4264 22.2077H19.5931L19.9181 20.5935C20.3514 20.431 20.7414 20.2035 21.0881 19.911L22.6589 20.4418L23.7423 18.5677L22.5073 17.4735C22.5398 17.246 22.5723 17.0293 22.5723 16.791ZM18.5098 18.9577C17.3181 18.9577 16.3431 17.9827 16.3431 16.791C16.3431 15.5993 17.3181 14.6243 18.5098 14.6243C19.7014 14.6243 20.6764 15.5993 20.6764 16.791C20.6764 17.9827 19.7014 18.9577 18.5098 18.9577Z" fill="#004E2B"/>
</svg>
