<svg width="33" height="32" viewBox="0 0 33 32" fill="none" xmlns="http://www.w3.org/2000/svg">
<path d="M12.1496 6.86683C11.6333 6.41648 10.9969 6.1264 10.3183 6.03208C9.63974 5.93777 8.94837 6.0433 8.32882 6.33578C7.70926 6.62826 7.1884 7.09499 6.82997 7.67887C6.47153 8.26274 6.29106 8.93844 6.31065 9.62328C6.33024 10.3081 6.54903 10.9724 6.94025 11.5348C7.33147 12.0973 7.87816 12.5335 8.51342 12.7901C9.14867 13.0466 9.84495 13.1125 10.517 12.9795C11.1891 12.8466 11.8079 12.5206 12.2976 12.0415C12.7504 12.7448 13.3724 13.3232 14.1066 13.7239C14.8409 14.1245 15.6639 14.3346 16.5003 14.3348C17.3365 14.3349 18.1593 14.1252 18.8935 13.7251C19.6277 13.3249 20.2499 12.7469 20.703 12.0442C21.1927 12.5233 21.8115 12.8493 22.4836 12.9822C23.1557 13.1152 23.8519 13.0493 24.4872 12.7927C25.1224 12.5361 25.6691 12.0999 26.0604 11.5375C26.4516 10.9751 26.6704 10.3108 26.69 9.62595C26.7095 8.94111 26.5291 8.26541 26.1706 7.68153C25.8122 7.09766 25.2913 6.63092 24.6718 6.33845C24.0522 6.04597 23.3609 5.94043 22.6823 6.03475C22.0037 6.12907 21.3673 6.41915 20.851 6.8695C20.415 6.09967 19.7825 5.45932 19.0182 5.01379C18.2539 4.56825 17.385 4.3335 16.5003 4.3335C15.6159 4.33324 14.7472 4.56759 13.9829 5.01263C13.2185 5.45768 12.586 6.0975 12.1496 6.86683ZM13.5003 9.3335C13.5003 8.53785 13.8164 7.77479 14.379 7.21218C14.9416 6.64957 15.7047 6.3335 16.5003 6.3335C17.2959 6.3335 18.059 6.64957 18.6216 7.21218C19.1842 7.77479 19.5003 8.53785 19.5003 9.3335C19.5003 10.1291 19.1842 10.8922 18.6216 11.4548C18.059 12.0174 17.2959 12.3335 16.5003 12.3335C15.7047 12.3335 14.9416 12.0174 14.379 11.4548C13.8164 10.8922 13.5003 10.1291 13.5003 9.3335ZM11.6176 8.2535C11.4396 9.05969 11.4634 9.89738 11.687 10.6922C11.4343 11.095 11.0574 11.4046 10.6132 11.5742C10.169 11.7437 9.68161 11.7641 9.2248 11.6322C8.76798 11.5002 8.36654 11.2232 8.08116 10.8429C7.79577 10.4625 7.64196 9.99965 7.64297 9.52416C7.64323 9.06013 7.79083 8.60816 8.06451 8.23342C8.33818 7.85867 8.72378 7.58051 9.16572 7.43903C9.60766 7.29755 10.0831 7.30006 10.5235 7.4462C10.964 7.59234 11.3466 7.87455 11.6163 8.25216M21.3123 10.6908C21.5366 9.89571 21.5605 9.0574 21.3816 8.25083C21.6542 7.86843 22.0425 7.58376 22.4892 7.43881C22.9359 7.29385 23.4174 7.29627 23.8626 7.44573C24.3078 7.59518 24.6932 7.88375 24.9619 8.26887C25.2307 8.654 25.3685 9.11529 25.3552 9.58472C25.3419 10.0542 25.178 10.5069 24.8878 10.8761C24.5977 11.2454 24.1965 11.5116 23.7435 11.6355C23.2905 11.7594 22.8097 11.7345 22.372 11.5644C21.9343 11.3943 21.5628 11.0881 21.3123 10.6908ZM7.10163 13.7295C7.5643 13.6068 8.00163 13.7588 8.30297 13.9775C8.42297 14.0642 8.5883 14.1708 8.78963 14.2682C8.94377 14.348 9.06067 14.4849 9.11548 14.6496C9.1703 14.8143 9.1587 14.9939 9.08316 15.1502C9.00761 15.3065 8.87408 15.4272 8.71096 15.4865C8.54783 15.5459 8.36797 15.5393 8.20963 15.4682C7.96817 15.3519 7.73749 15.2145 7.5203 15.0575C7.49867 15.042 7.47485 15.0299 7.44963 15.0215L7.4403 15.0202C7.26052 15.0682 7.08222 15.1215 6.90563 15.1802L5.99097 15.4788C5.64988 15.5899 5.34157 15.7836 5.09357 16.0428C4.84556 16.302 4.66557 16.6185 4.56963 16.9642L4.1923 19.6962C4.11763 20.2335 4.40163 20.6362 4.80563 20.7322C5.10341 20.8051 5.46474 20.8762 5.88963 20.9455C5.97613 20.9595 6.05902 20.9904 6.13358 21.0365C6.20813 21.0825 6.27288 21.1428 6.32414 21.2138C6.3754 21.2849 6.41216 21.3654 6.43232 21.4506C6.45248 21.5359 6.45564 21.6243 6.44163 21.7108C6.42763 21.7973 6.39672 21.8802 6.35068 21.9548C6.30463 22.0293 6.24436 22.0941 6.17329 22.1453C6.10222 22.1966 6.02175 22.2334 5.93648 22.2535C5.85121 22.2737 5.7628 22.2768 5.6763 22.2628C5.28063 22.1998 4.88746 22.122 4.49763 22.0295C3.3043 21.7455 2.7203 20.6028 2.87097 19.5135L3.2603 16.7055L3.2683 16.6695C3.41432 16.0986 3.70238 15.5739 4.10569 15.1443C4.50899 14.7146 5.01443 14.394 5.57497 14.2122L6.4883 13.9122C6.69275 13.8455 6.89719 13.7846 7.10163 13.7295ZM26.0736 13.7295C25.8678 13.6791 25.6532 13.6752 25.4457 13.7181C25.2381 13.761 25.0427 13.8496 24.8736 13.9775C24.7536 14.0642 24.5883 14.1708 24.387 14.2682C24.2328 14.348 24.1159 14.4849 24.0611 14.6496C24.0063 14.8143 24.0179 14.9939 24.0934 15.1502C24.169 15.3065 24.3025 15.4272 24.4656 15.4865C24.6288 15.5459 24.8086 15.5393 24.967 15.4682C25.2084 15.3519 25.4391 15.2145 25.6563 15.0575C25.6779 15.042 25.7017 15.0299 25.727 15.0215L25.7363 15.0202C25.9167 15.0673 26.095 15.1206 26.271 15.1802L27.1856 15.4788C27.887 15.7095 28.419 16.2708 28.607 16.9642L28.9843 19.6962C29.059 20.2335 28.7763 20.6362 28.371 20.7322C28.0124 20.8169 27.6509 20.888 27.287 20.9455C27.2005 20.9595 27.1176 20.9904 27.043 21.0365C26.9685 21.0825 26.9037 21.1428 26.8525 21.2138C26.8012 21.2849 26.7644 21.3654 26.7443 21.4506C26.7241 21.5359 26.721 21.6243 26.735 21.7108C26.749 21.7973 26.7799 21.8802 26.8259 21.9548C26.872 22.0293 26.9322 22.0941 27.0033 22.1453C27.0744 22.1966 27.1548 22.2334 27.2401 22.2535C27.3254 22.2737 27.4138 22.2768 27.5003 22.2628C27.9554 22.1873 28.3483 22.1095 28.679 22.0295C29.8723 21.7455 30.4563 20.6028 30.3056 19.5135L29.9163 16.7055L29.9083 16.6695C29.7623 16.0986 29.4742 15.5739 29.0709 15.1443C28.6676 14.7146 28.1622 14.394 27.6016 14.2122L26.6883 13.9122C26.4855 13.8458 26.2797 13.7849 26.0736 13.7295Z" fill="#016AD4"/>
<path d="M18.7035 15.6161C19.2315 15.2654 20.0008 14.9894 20.8141 15.2201C21.0275 15.2797 21.2395 15.3441 21.4501 15.4134L22.7288 15.8334C23.524 16.0919 24.2409 16.5472 24.8129 17.157C25.385 17.7668 25.7936 18.5114 26.0008 19.3214L26.0141 19.3748L26.5595 23.3081C26.7741 24.8601 25.9421 26.4988 24.2341 26.9054C22.6741 27.2774 20.1635 27.6668 16.5008 27.6668C12.8341 27.6668 10.3261 27.2774 8.76479 26.9068C7.05679 26.4988 6.22479 24.8601 6.43946 23.3094L6.98346 19.3761L6.99679 19.3228C7.2039 18.5123 7.61262 17.7674 8.18493 17.1573C8.75724 16.5473 9.47454 16.0918 10.2701 15.8334L11.5501 15.4134C11.7608 15.345 11.9723 15.2801 12.1848 15.2188C12.9981 14.9894 13.7688 15.2654 14.2955 15.6161C14.7755 15.9334 15.5515 16.3148 16.4995 16.3148C17.4475 16.3148 18.2248 15.9334 18.7035 15.6161ZM20.2701 17.1441C20.2061 17.1254 20.0421 17.1281 19.8101 17.2814C19.1408 17.7254 17.9795 18.3148 16.4995 18.3148C15.0195 18.3148 13.8581 17.7254 13.1901 17.2814C12.9568 17.1281 12.7928 17.1254 12.7288 17.1441C12.5421 17.1974 12.3572 17.2539 12.1741 17.3134L10.8941 17.7334C10.4275 17.8851 10.0056 18.1499 9.66622 18.5043C9.32679 18.8586 9.08032 19.2914 8.94879 19.7641L8.42079 23.5828C8.32079 24.3081 8.70079 24.8348 9.22879 24.9601C10.6248 25.2934 12.9768 25.6668 16.4995 25.6668C20.0221 25.6668 22.3755 25.2934 23.7701 24.9601C24.2981 24.8348 24.6781 24.3081 24.5781 23.5828L24.0501 19.7641C23.9185 19.2912 23.6718 18.8583 23.3321 18.504C22.9925 18.1497 22.5703 17.8849 22.1035 17.7334L20.8261 17.3134C20.642 17.253 20.4567 17.1965 20.2701 17.1441Z" fill="#016AD4"/>
</svg>
