<svg width="32" height="33" viewBox="0 0 32 33" fill="none" xmlns="http://www.w3.org/2000/svg">
<path d="M21.4054 7.91124L22.6493 6.64975C22.6977 6.60161 22.7363 6.54422 22.7627 6.48087C22.7891 6.41753 22.8029 6.34951 22.8032 6.28073C22.8036 6.21195 22.7905 6.14379 22.7647 6.08018C22.7389 6.01658 22.7009 5.95878 22.653 5.91015C22.605 5.86152 22.548 5.82301 22.4853 5.79685C22.4226 5.77069 22.3554 5.7574 22.2875 5.75775C22.2197 5.75809 22.1527 5.77207 22.0902 5.79887C22.0277 5.82567 21.9711 5.86476 21.9237 5.91389L20.5865 7.25947C19.088 6.14136 17.3699 5.36336 15.5487 4.97828V3.1281C15.5494 3.05888 15.5364 2.99023 15.5106 2.92614C15.4848 2.86206 15.4467 2.80385 15.3984 2.7549C15.3502 2.70595 15.2928 2.66726 15.2296 2.64109C15.1664 2.61492 15.0987 2.60179 15.0304 2.60248H14.4188C14.4767 2.43326 14.5082 2.25592 14.5121 2.07686C14.5121 1.65865 14.3483 1.25757 14.0567 0.961852C13.7651 0.666133 13.3696 0.5 12.9573 0.5C12.5449 0.5 12.1494 0.666133 11.8578 0.961852C11.5662 1.25757 11.4024 1.65865 11.4024 2.07686C11.4064 2.25592 11.4378 2.43326 11.4957 2.60248H10.8841C10.8159 2.60179 10.7482 2.61492 10.685 2.64109C10.6218 2.66726 10.5644 2.70595 10.5161 2.7549C10.4679 2.80385 10.4297 2.86206 10.4039 2.92614C10.3781 2.99023 10.3651 3.05888 10.3658 3.1281V4.96777C8.54226 5.35532 6.82123 6.13304 5.31768 7.24896L3.99086 5.91389C3.89431 5.81793 3.76432 5.76449 3.62914 5.76518C3.49395 5.76587 3.3645 5.82064 3.26891 5.91758C3.17331 6.01453 3.11931 6.14581 3.11863 6.28291C3.11794 6.42001 3.17064 6.55184 3.26526 6.64975L4.49879 7.91124C2.49544 9.66032 1.06819 11.9895 0.408955 14.5857C-0.250281 17.1819 -0.109896 19.9205 0.811235 22.4333C1.73237 24.9462 3.39007 27.1127 5.56146 28.6417C7.73285 30.1707 10.3138 30.9888 12.9573 30.986C14.4374 30.9912 15.9071 30.7351 17.3005 30.2291C17.4297 30.1816 17.535 30.0841 17.5933 29.958C17.6515 29.8318 17.658 29.6873 17.6113 29.5563C17.5646 29.4253 17.4685 29.3185 17.3441 29.2594C17.2197 29.2002 17.0773 29.1936 16.9481 29.2409C15.6677 29.7056 14.3172 29.9404 12.9573 29.9347C10.6756 29.9331 8.44239 29.2675 6.52271 28.017C4.60302 26.7664 3.07756 24.9834 2.12745 22.8796C1.17734 20.7759 0.842516 18.4398 1.16273 16.1488C1.48294 13.8578 2.44473 11.7082 3.9339 9.95506C5.42307 8.20197 7.37705 6.91912 9.56381 6.25884C11.7506 5.59857 14.0782 5.5886 16.2704 6.23013C18.4626 6.87167 20.4272 8.13774 21.9309 9.87802C23.4346 11.6183 24.4143 13.7597 24.7535 16.0478C24.774 16.1834 24.8464 16.3052 24.9549 16.3869C25.0635 16.4686 25.1995 16.5036 25.3333 16.4842C25.4671 16.4648 25.588 16.3926 25.6697 16.2834C25.7513 16.1741 25.7871 16.0366 25.7694 15.9007C25.3083 12.7923 23.7592 9.95626 21.4054 7.91124ZM12.9573 1.55124C13.0598 1.55124 13.16 1.58207 13.2452 1.63982C13.3304 1.69758 13.3969 1.77967 13.4361 1.87571C13.4753 1.97176 13.4856 2.07744 13.4656 2.1794C13.4456 2.28136 13.3962 2.37502 13.3238 2.44853C13.2513 2.52204 13.1589 2.5721 13.0584 2.59238C12.9578 2.61266 12.8536 2.60225 12.7589 2.56247C12.6642 2.52269 12.5833 2.45532 12.5263 2.36888C12.4694 2.28244 12.439 2.18082 12.439 2.07686C12.4383 2.00764 12.4512 1.93899 12.4771 1.8749C12.5029 1.81082 12.541 1.75261 12.5893 1.70366C12.6375 1.65471 12.6949 1.61602 12.7581 1.58985C12.8213 1.56368 12.889 1.55055 12.9573 1.55124Z" fill="#AA1992"/>
<path d="M10.8844 20.4736C10.7819 20.4736 10.6817 20.4428 10.5965 20.385C10.5113 20.3272 10.4449 20.2452 10.4056 20.1491C10.3664 20.0531 10.3562 19.9474 10.3761 19.8455C10.3961 19.7435 10.4455 19.6499 10.518 19.5763L12.4393 17.6279V11.5381C12.4393 11.3987 12.4939 11.265 12.5911 11.1664C12.6883 11.0678 12.8201 11.0124 12.9576 11.0124C13.095 11.0124 13.2269 11.0678 13.3241 11.1664C13.4213 11.265 13.4759 11.3987 13.4759 11.5381V17.8455C13.4759 17.9145 13.4625 17.9829 13.4364 18.0466C13.4104 18.1104 13.3722 18.1683 13.324 18.2171L11.2509 20.3196C11.2028 20.3685 11.1457 20.4073 11.0828 20.4337C11.0199 20.4601 10.9525 20.4737 10.8844 20.4736Z" fill="#AA1992"/>
<path fill-rule="evenodd" clip-rule="evenodd" d="M24.2588 16.7968C26.3107 16.801 28.2776 17.6302 29.7285 19.1017C31.1794 20.5732 31.996 22.5678 32 24.6488C32 26.2016 31.546 27.7199 30.6953 29.011C29.8446 30.3019 28.6352 31.3077 27.2207 31.9019C25.8061 32.4961 24.2497 32.6522 22.7481 32.3493C21.2464 32.0464 19.8669 31.2986 18.7842 30.2007C17.7015 29.1027 16.9638 27.7031 16.6651 26.1801C16.3664 24.6573 16.5197 23.0787 17.1055 21.6442C17.6914 20.2097 18.684 18.9832 19.9571 18.1205C21.2302 17.2578 22.7276 16.7968 24.2588 16.7968ZM21.5752 20.5738C21.3257 20.5742 21.1117 20.6621 20.9336 20.8388C20.7555 21.0154 20.6671 21.2281 20.667 21.4764V27.8008C20.6674 28.0493 20.756 28.2617 20.9336 28.4384C21.1114 28.6151 21.3254 28.7042 21.5752 28.7043H24.3027C24.4315 28.7049 24.54 28.6613 24.627 28.5743C24.7138 28.4873 24.7575 28.3796 24.7578 28.2521C24.7581 28.1245 24.7141 28.0175 24.627 27.9308C24.5397 27.8441 24.4315 27.8008 24.3027 27.8008H21.5752V21.4764H24.3027C24.4315 21.477 24.54 21.4343 24.627 21.3473C24.7138 21.2603 24.7575 21.1527 24.7578 21.0251C24.7581 20.8975 24.7141 20.7906 24.627 20.7039C24.5397 20.6171 24.4315 20.5738 24.3027 20.5738H21.5752ZM26.5752 22.5778C26.4468 22.5818 26.341 22.6286 26.2578 22.7185C26.1745 22.8088 26.1329 22.9145 26.1328 23.0349C26.1328 23.1553 26.1745 23.2568 26.2578 23.3396L27.1094 24.1868H23.8486C23.7205 24.1868 23.612 24.2301 23.5244 24.3169C23.4369 24.4036 23.3933 24.5114 23.3936 24.6391C23.394 24.7665 23.4377 24.8737 23.5244 24.9603C23.6114 25.047 23.7199 25.0903 23.8486 25.0903H27.1094L26.2686 25.9259C26.1857 26.0089 26.1427 26.1126 26.1387 26.2364C26.1347 26.3605 26.1745 26.4683 26.2578 26.5586C26.349 26.6491 26.4573 26.6957 26.582 26.6993C26.7067 26.7028 26.8145 26.6595 26.9053 26.5693L28.5303 24.9545C28.6209 24.8643 28.6669 24.7592 28.667 24.6391C28.667 24.5187 28.6211 24.413 28.5303 24.3227L26.9053 22.7079C26.8144 22.6172 26.704 22.5739 26.5752 22.5778Z" fill="#AA1992"/>
</svg>
