<svg width="33" height="33" viewBox="0 0 33 33" fill="none" xmlns="http://www.w3.org/2000/svg">
<path d="M21.655 7.91125L22.8989 6.64976C22.9474 6.60162 22.9859 6.54422 23.0123 6.48088C23.0387 6.41754 23.0525 6.34952 23.0529 6.28074C23.0532 6.21196 23.0401 6.1438 23.0143 6.08019C22.9885 6.01658 22.9506 5.95879 22.9026 5.91016C22.8546 5.86152 22.7977 5.82301 22.7349 5.79685C22.6722 5.7707 22.605 5.75741 22.5372 5.75775C22.4694 5.7581 22.4023 5.77208 22.3398 5.79888C22.2774 5.82568 22.2208 5.86477 22.1733 5.91389L20.8362 7.25948C19.3377 6.14137 17.6196 5.36336 15.7985 4.97829V3.1281C15.7991 3.05889 15.7862 2.99023 15.7604 2.92615C15.7346 2.86207 15.6964 2.80385 15.6482 2.7549C15.5999 2.70596 15.5425 2.66727 15.4793 2.64109C15.4161 2.61492 15.3484 2.6018 15.2802 2.60248H14.6686C14.7265 2.43326 14.7579 2.25592 14.7619 2.07686C14.7619 1.65865 14.5981 1.25757 14.3065 0.961852C14.0149 0.666133 13.6194 0.5 13.2071 0.5C12.7947 0.5 12.3992 0.666133 12.1076 0.961852C11.816 1.25757 11.6522 1.65865 11.6522 2.07686C11.6562 2.25592 11.6877 2.43326 11.7455 2.60248H11.1339C11.0657 2.6018 10.998 2.61492 10.9348 2.64109C10.8716 2.66727 10.8142 2.70596 10.7659 2.7549C10.7177 2.80385 10.6795 2.86207 10.6537 2.92615C10.6279 2.99023 10.615 3.05889 10.6157 3.1281V4.96778C8.79212 5.35533 7.07112 6.13304 5.5676 7.24897L4.2408 5.91389C4.14425 5.81793 4.01426 5.76449 3.87908 5.76519C3.74389 5.76588 3.61444 5.82065 3.51885 5.91759C3.42326 6.01453 3.36926 6.14582 3.36858 6.28292C3.36789 6.42001 3.42059 6.55184 3.51521 6.64976L4.74872 7.91125C2.7454 9.66034 1.31817 11.9896 0.658948 14.5857C-0.000277072 17.1819 0.140106 19.9205 1.06122 22.4334C1.98234 24.9462 3.64002 27.1128 5.81137 28.6418C7.98272 30.1707 10.5636 30.9888 13.2071 30.986C14.6871 30.9912 16.1568 30.7351 17.5503 30.2291C17.6794 30.1817 17.7847 30.0842 17.843 29.958C17.9013 29.8318 17.9078 29.6874 17.861 29.5564C17.8143 29.4254 17.7182 29.3186 17.5938 29.2594C17.4695 29.2002 17.327 29.1936 17.1978 29.2409C15.9174 29.7057 14.567 29.9404 13.2071 29.9348C10.9255 29.9332 8.69226 29.2676 6.7726 28.017C4.85295 26.7664 3.32751 24.9834 2.37742 22.8797C1.42733 20.7759 1.0925 18.4398 1.41271 16.1488C1.73291 13.8578 2.69469 11.7082 4.18384 9.95507C5.67298 8.20198 7.62693 6.91913 9.81365 6.25885C12.0004 5.59857 14.328 5.58861 16.5202 6.23014C18.7123 6.87168 20.6769 8.13775 22.1805 9.87803C23.6842 11.6183 24.6639 13.7597 25.0031 16.0479C25.0236 16.1834 25.096 16.3052 25.2045 16.3869C25.3131 16.4686 25.4491 16.5036 25.5829 16.4842C25.7167 16.4648 25.8376 16.3926 25.9192 16.2834C26.0009 16.1741 26.0367 16.0366 26.019 15.9007C25.5579 12.7924 24.0088 9.95627 21.655 7.91125ZM13.2071 1.55124C13.3096 1.55124 13.4098 1.58207 13.495 1.63982C13.5802 1.69758 13.6467 1.77967 13.6859 1.87572C13.7251 1.97176 13.7354 2.07745 13.7154 2.17941C13.6954 2.28137 13.646 2.37502 13.5735 2.44853C13.5011 2.52204 13.4087 2.5721 13.3082 2.59238C13.2076 2.61266 13.1034 2.60226 13.0087 2.56247C12.914 2.52269 12.8331 2.45532 12.7761 2.36888C12.7192 2.28244 12.6888 2.18082 12.6888 2.07686C12.6881 2.00765 12.701 1.93899 12.7269 1.87491C12.7527 1.81082 12.7908 1.75261 12.8391 1.70366C12.8873 1.65471 12.9447 1.61602 13.0079 1.58985C13.0711 1.56368 13.1388 1.55055 13.2071 1.55124Z" fill="#FF0101"/>
<path d="M11.1342 20.4736C11.0317 20.4736 10.9316 20.4428 10.8463 20.385C10.7611 20.3273 10.6947 20.2452 10.6555 20.1491C10.6163 20.0531 10.606 19.9474 10.626 19.8455C10.646 19.7435 10.6953 19.6499 10.7678 19.5764L12.6891 17.6279V11.5381C12.6891 11.3987 12.7437 11.265 12.8409 11.1664C12.9381 11.0678 13.0699 11.0125 13.2074 11.0125C13.3448 11.0125 13.4766 11.0678 13.5738 11.1664C13.671 11.265 13.7256 11.3987 13.7256 11.5381V17.8455C13.7257 17.9145 13.7122 17.9829 13.6862 18.0467C13.6601 18.1104 13.622 18.1684 13.5738 18.2172L11.5007 20.3196C11.4526 20.3685 11.3955 20.4073 11.3326 20.4337C11.2697 20.4601 11.2023 20.4737 11.1342 20.4736Z" fill="#FF0101"/>
<path fill-rule="evenodd" clip-rule="evenodd" d="M24.5079 16.7968C26.5599 16.8009 28.5266 17.6301 29.9776 19.1017C31.4285 20.5732 32.246 22.5678 32.25 24.6488C32.2499 26.2014 31.7958 27.7191 30.9453 29.01C30.0947 30.3011 28.8853 31.3077 27.4708 31.902C26.0563 32.4962 24.4998 32.6522 22.9982 32.3494C21.4965 32.0464 20.1161 31.2978 19.0334 30.1998C17.951 29.1018 17.214 27.703 16.9153 26.1802C16.6166 24.6573 16.7699 23.0788 17.3557 21.6443C17.9417 20.2096 18.9341 18.9833 20.2072 18.1206C21.4803 17.2579 22.9769 16.7969 24.5079 16.7968ZM26.7081 22.2634C26.648 22.2639 26.5886 22.2758 26.5333 22.2993C26.4781 22.3229 26.4277 22.3573 26.3858 22.4003L24.6632 24.1121L22.9416 22.4003C22.8565 22.3157 22.7406 22.2683 22.6203 22.2683C22.5 22.2683 22.3841 22.3158 22.299 22.4003C22.2139 22.4848 22.1662 22.5999 22.1662 22.7195C22.1662 22.8392 22.2139 22.9542 22.299 23.0388L24.0216 24.7497L22.299 26.4616C22.2164 26.5467 22.171 26.6607 22.1721 26.7789C22.1731 26.8972 22.2207 27.0107 22.3049 27.0943C22.389 27.1779 22.5033 27.2253 22.6222 27.2263C22.7411 27.2272 22.856 27.1813 22.9416 27.0992L24.6632 25.3883L26.3858 27.0992C26.4715 27.1814 26.5861 27.2274 26.7052 27.2263C26.824 27.2252 26.9375 27.1777 27.0216 27.0943C27.1058 27.0107 27.1543 26.8972 27.1554 26.7789C27.1564 26.6606 27.1101 26.5467 27.0274 26.4616L25.3058 24.7497L27.0274 23.0388C27.0708 22.9972 27.1052 22.9473 27.129 22.8923C27.1528 22.8372 27.1656 22.7775 27.1661 22.7176C27.1666 22.6578 27.1547 22.5982 27.1319 22.5429C27.1091 22.4877 27.0757 22.4376 27.0333 22.3954C26.9907 22.353 26.9397 22.3191 26.8839 22.2964C26.8281 22.2738 26.7683 22.2629 26.7081 22.2634Z" fill="#FF0101"/>
</svg>
