<svg width="33" height="33" viewBox="0 0 33 33" fill="none" xmlns="http://www.w3.org/2000/svg">
<path d="M22.1553 7.91124L23.3991 6.64976C23.4476 6.60162 23.4861 6.54422 23.5126 6.48088C23.539 6.41754 23.5528 6.34951 23.5531 6.28073C23.5534 6.21196 23.5403 6.14379 23.5145 6.08019C23.4888 6.01658 23.4508 5.95879 23.4028 5.91015C23.3549 5.86152 23.2979 5.82301 23.2352 5.79685C23.1724 5.77069 23.1052 5.7574 23.0374 5.75775C22.9696 5.75809 22.9025 5.77207 22.8401 5.79887C22.7776 5.82568 22.721 5.86477 22.6735 5.91389L21.3364 7.25948C19.8379 6.14137 18.1198 5.36336 16.2986 4.97828V3.1281C16.2993 3.05888 16.2864 2.99023 16.2605 2.92615C16.2347 2.86206 16.1966 2.80385 16.1483 2.7549C16.1001 2.70595 16.0427 2.66726 15.9795 2.64109C15.9163 2.61492 15.8486 2.60179 15.7803 2.60248H15.1688C15.2266 2.43326 15.2581 2.25592 15.262 2.07686C15.262 1.65865 15.0982 1.25757 14.8066 0.961852C14.515 0.666133 14.1196 0.5 13.7072 0.5C13.2948 0.5 12.8993 0.666133 12.6077 0.961852C12.3161 1.25757 12.1523 1.65865 12.1523 2.07686C12.1563 2.25592 12.1878 2.43326 12.2456 2.60248H11.634C11.5658 2.60179 11.4981 2.61492 11.4349 2.64109C11.3717 2.66726 11.3143 2.70595 11.2661 2.7549C11.2178 2.80385 11.1796 2.86206 11.1538 2.92615C11.128 2.99023 11.1151 3.05888 11.1158 3.1281V4.96777C9.2922 5.35533 7.57118 6.13304 6.06765 7.24896L4.74084 5.91389C4.64429 5.81793 4.5143 5.76449 4.37911 5.76518C4.24393 5.76587 4.11448 5.82064 4.01889 5.91759C3.92329 6.01453 3.86929 6.14581 3.86861 6.28291C3.86792 6.42001 3.92062 6.55184 4.01524 6.64976L5.24876 7.91124C3.24542 9.66033 1.81818 11.9895 1.15895 14.5857C0.49972 17.1819 0.640105 19.9205 1.56123 22.4333C2.48236 24.9462 4.14005 27.1128 6.31143 28.6417C8.4828 30.1707 11.0637 30.9888 13.7072 30.986C15.1873 30.9912 16.657 30.7351 18.0504 30.2291C18.1796 30.1816 18.2849 30.0841 18.3432 29.958C18.4014 29.8318 18.4079 29.6874 18.3612 29.5564C18.3145 29.4254 18.2184 29.3185 18.094 29.2594C17.9696 29.2002 17.8272 29.1936 17.698 29.2409C16.4176 29.7056 15.0671 29.9404 13.7072 29.9347C11.4256 29.9332 9.19234 29.2676 7.27267 28.017C5.353 26.7664 3.82754 24.9834 2.87744 22.8796C1.92734 20.7759 1.59251 18.4398 1.91272 16.1488C2.23293 13.8578 3.19472 11.7082 4.68387 9.95506C6.17303 8.20197 8.127 6.91912 10.3138 6.25885C12.5005 5.59857 14.8282 5.5886 17.0203 6.23014C19.2125 6.87167 21.1771 8.13775 22.6808 9.87803C24.1845 11.6183 25.1641 13.7597 25.5034 16.0478C25.5239 16.1834 25.5962 16.3052 25.7048 16.3869C25.8133 16.4686 25.9493 16.5036 26.0831 16.4842C26.217 16.4648 26.3378 16.3926 26.4195 16.2834C26.5012 16.1741 26.537 16.0366 26.5192 15.9007C26.0582 12.7923 24.509 9.95626 22.1553 7.91124ZM13.7072 1.55124C13.8097 1.55124 13.9099 1.58207 13.9951 1.63982C14.0804 1.69758 14.1468 1.77967 14.186 1.87571C14.2253 1.97176 14.2355 2.07744 14.2155 2.1794C14.1955 2.28136 14.1462 2.37502 14.0737 2.44853C14.0012 2.52204 13.9088 2.5721 13.8083 2.59238C13.7078 2.61266 13.6036 2.60225 13.5089 2.56247C13.4141 2.52269 13.3332 2.45532 13.2763 2.36888C13.2193 2.28244 13.1889 2.18082 13.1889 2.07686C13.1882 2.00764 13.2012 1.93899 13.227 1.8749C13.2528 1.81082 13.2909 1.75261 13.3392 1.70366C13.3875 1.65471 13.4449 1.61602 13.5081 1.58985C13.5712 1.56368 13.6389 1.55055 13.7072 1.55124Z" fill="#07C437"/>
<path d="M11.6343 20.4736C11.5319 20.4736 11.4317 20.4428 11.3464 20.385C11.2612 20.3272 11.1948 20.2452 11.1556 20.1491C11.1164 20.0531 11.1061 19.9474 11.1261 19.8455C11.1461 19.7435 11.1954 19.6499 11.2679 19.5764L13.1892 17.6279V11.5381C13.1892 11.3987 13.2438 11.265 13.341 11.1664C13.4382 11.0678 13.57 11.0124 13.7075 11.0124C13.845 11.0124 13.9768 11.0678 14.074 11.1664C14.1712 11.265 14.2258 11.3987 14.2258 11.5381V17.8455C14.2258 17.9145 14.2124 17.9829 14.1863 18.0467C14.1603 18.1104 14.1221 18.1684 14.0739 18.2171L12.0008 20.3196C11.9527 20.3685 11.8956 20.4073 11.8327 20.4337C11.7698 20.4601 11.7024 20.4737 11.6343 20.4736Z" fill="#07C437"/>
<path fill-rule="evenodd" clip-rule="evenodd" d="M25.0079 16.7968C27.0599 16.8009 29.0275 17.6301 30.4785 19.1017C31.9293 20.5732 32.746 22.5679 32.75 24.6488C32.7499 26.2014 32.2958 27.719 31.4453 29.01C30.5946 30.3011 29.3854 31.3077 27.9707 31.902C26.5562 32.4961 24.9998 32.6522 23.4981 32.3493C21.9964 32.0464 20.617 31.2978 19.5343 30.1998C18.4517 29.1018 17.7139 27.7031 17.4152 26.1802C17.1165 24.6573 17.2698 23.0788 17.8556 21.6443C18.4415 20.2097 19.4341 18.9832 20.7071 18.1205C21.9801 17.2579 23.4769 16.7969 25.0079 16.7968ZM25.3106 20.5748C25.1854 20.5749 25.0798 20.6182 24.9942 20.7049C24.9088 20.7915 24.866 20.8986 24.8663 21.0261C24.8666 21.1536 24.9093 21.2607 24.9942 21.3473C25.0792 21.4339 25.1848 21.4773 25.3106 21.4773H27.9776V27.7998H25.3106C25.1854 27.7999 25.0798 27.8432 24.9942 27.9299C24.9087 28.0165 24.8661 28.1237 24.8663 28.2511C24.8666 28.3788 24.9092 28.4866 24.9942 28.5733C25.0792 28.6599 25.1848 28.7033 25.3106 28.7033H27.9776C28.2222 28.7036 28.4316 28.6153 28.6055 28.4384C28.7794 28.2614 28.8662 28.0482 28.8662 27.7998V21.4773C28.8665 21.2293 28.7797 21.0167 28.6055 20.8397C28.4313 20.6628 28.222 20.5748 27.9776 20.5748H25.3106ZM23.9776 22.5778C23.8517 22.5817 23.7476 22.6292 23.6661 22.7195C23.5847 22.8098 23.544 22.9156 23.544 23.0359C23.5441 23.1561 23.5847 23.2579 23.6661 23.3406L24.5001 24.1868H21.3106C21.1854 24.1869 21.0798 24.2303 20.9942 24.3169C20.9086 24.4036 20.866 24.5114 20.8663 24.6391C20.8667 24.7665 20.9093 24.8737 20.9942 24.9603C21.0792 25.0469 21.1848 25.0903 21.3106 25.0903H24.5001L23.6778 25.9259C23.5966 26.009 23.5537 26.1124 23.5499 26.2364C23.546 26.3603 23.5848 26.4674 23.6661 26.5577C23.7553 26.6483 23.8614 26.6957 23.9835 26.6993C24.1055 26.7029 24.211 26.6596 24.2999 26.5693L25.8887 24.9545C25.9774 24.8643 26.0215 24.7593 26.0215 24.6391C26.0215 24.5187 25.9776 24.413 25.8887 24.3227L24.2999 22.7079C24.211 22.6173 24.1035 22.5739 23.9776 22.5778Z" fill="#07C437"/>
</svg>
