<svg width="33" height="33" viewBox="0 0 33 33" fill="none" xmlns="http://www.w3.org/2000/svg">
<path d="M21.905 7.91125L23.1489 6.64976C23.1974 6.60162 23.2359 6.54422 23.2623 6.48088C23.2887 6.41754 23.3025 6.34952 23.3029 6.28074C23.3032 6.21196 23.2901 6.1438 23.2643 6.08019C23.2385 6.01658 23.2006 5.95879 23.1526 5.91016C23.1046 5.86152 23.0477 5.82301 22.9849 5.79685C22.9222 5.7707 22.855 5.75741 22.7872 5.75775C22.7194 5.7581 22.6523 5.77208 22.5898 5.79888C22.5274 5.82568 22.4708 5.86477 22.4233 5.91389L21.0862 7.25948C19.5877 6.14137 17.8696 5.36336 16.0485 4.97829V3.1281C16.0491 3.05889 16.0362 2.99023 16.0104 2.92615C15.9846 2.86207 15.9464 2.80385 15.8982 2.7549C15.8499 2.70596 15.7925 2.66727 15.7293 2.64109C15.6661 2.61492 15.5984 2.6018 15.5302 2.60248H14.9186C14.9765 2.43326 15.0079 2.25592 15.0119 2.07686C15.0119 1.65865 14.8481 1.25757 14.5565 0.961852C14.2649 0.666133 13.8694 0.5 13.4571 0.5C13.0447 0.5 12.6492 0.666133 12.3576 0.961852C12.066 1.25757 11.9022 1.65865 11.9022 2.07686C11.9062 2.25592 11.9377 2.43326 11.9955 2.60248H11.3839C11.3157 2.6018 11.248 2.61492 11.1848 2.64109C11.1216 2.66727 11.0642 2.70596 11.0159 2.7549C10.9677 2.80385 10.9295 2.86207 10.9037 2.92615C10.8779 2.99023 10.865 3.05889 10.8657 3.1281V4.96778C9.04212 5.35533 7.32112 6.13304 5.8176 7.24897L4.4908 5.91389C4.39425 5.81793 4.26426 5.76449 4.12908 5.76519C3.99389 5.76588 3.86444 5.82065 3.76885 5.91759C3.67326 6.01453 3.61926 6.14582 3.61858 6.28292C3.61789 6.42001 3.67059 6.55184 3.76521 6.64976L4.99872 7.91125C2.9954 9.66034 1.56817 11.9896 0.908948 14.5857C0.249723 17.1819 0.390106 19.9205 1.31122 22.4334C2.23234 24.9462 3.89002 27.1128 6.06137 28.6418C8.23272 30.1707 10.8136 30.9888 13.4571 30.986C14.9371 30.9912 16.4068 30.7351 17.8003 30.2291C17.9294 30.1817 18.0347 30.0842 18.093 29.958C18.1513 29.8318 18.1578 29.6874 18.111 29.5564C18.0643 29.4254 17.9682 29.3186 17.8438 29.2594C17.7195 29.2002 17.577 29.1936 17.4478 29.2409C16.1674 29.7057 14.817 29.9404 13.4571 29.9348C11.1755 29.9332 8.94226 29.2676 7.0226 28.017C5.10295 26.7664 3.57751 24.9834 2.62742 22.8797C1.67733 20.7759 1.3425 18.4398 1.66271 16.1488C1.98291 13.8578 2.94469 11.7082 4.43384 9.95507C5.92298 8.20198 7.87693 6.91913 10.0637 6.25885C12.2504 5.59857 14.578 5.58861 16.7702 6.23014C18.9623 6.87168 20.9269 8.13775 22.4305 9.87803C23.9342 11.6183 24.9139 13.7597 25.2531 16.0479C25.2736 16.1834 25.346 16.3052 25.4545 16.3869C25.5631 16.4686 25.6991 16.5036 25.8329 16.4842C25.9667 16.4648 26.0876 16.3926 26.1692 16.2834C26.2509 16.1741 26.2867 16.0366 26.269 15.9007C25.8079 12.7924 24.2588 9.95627 21.905 7.91125ZM13.4571 1.55124C13.5596 1.55124 13.6598 1.58207 13.745 1.63982C13.8302 1.69758 13.8967 1.77967 13.9359 1.87572C13.9751 1.97176 13.9854 2.07745 13.9654 2.17941C13.9454 2.28137 13.896 2.37502 13.8235 2.44853C13.7511 2.52204 13.6587 2.5721 13.5582 2.59238C13.4576 2.61266 13.3534 2.60226 13.2587 2.56247C13.164 2.52269 13.0831 2.45532 13.0261 2.36888C12.9692 2.28244 12.9388 2.18082 12.9388 2.07686C12.9381 2.00765 12.951 1.93899 12.9769 1.87491C13.0027 1.81082 13.0408 1.75261 13.0891 1.70366C13.1373 1.65471 13.1947 1.61602 13.2579 1.58985C13.3211 1.56368 13.3888 1.55055 13.4571 1.55124Z" fill="#FFA640"/>
<path d="M11.3842 20.4736C11.2817 20.4736 11.1816 20.4428 11.0963 20.385C11.0111 20.3273 10.9447 20.2452 10.9055 20.1491C10.8663 20.0531 10.856 19.9474 10.876 19.8455C10.896 19.7435 10.9453 19.6499 11.0178 19.5764L12.9391 17.6279V11.5381C12.9391 11.3987 12.9937 11.265 13.0909 11.1664C13.1881 11.0678 13.3199 11.0125 13.4574 11.0125C13.5948 11.0125 13.7266 11.0678 13.8238 11.1664C13.921 11.265 13.9756 11.3987 13.9756 11.5381V17.8455C13.9757 17.9145 13.9622 17.9829 13.9362 18.0467C13.9101 18.1104 13.872 18.1684 13.8238 18.2172L11.7507 20.3196C11.7026 20.3685 11.6455 20.4073 11.5826 20.4337C11.5197 20.4601 11.4523 20.4737 11.3842 20.4736Z" fill="#FFA640"/>
<path fill-rule="evenodd" clip-rule="evenodd" d="M24.7579 16.7968C26.8099 16.8009 28.7766 17.6301 30.2276 19.1017C31.6785 20.5732 32.496 22.5678 32.5 24.6488C32.4999 26.2014 32.0458 27.7191 31.1953 29.01C30.3447 30.3011 29.1353 31.3077 27.7208 31.902C26.3063 32.4962 24.7498 32.6522 23.2482 32.3494C21.7465 32.0464 20.3661 31.2978 19.2834 30.1998C18.201 29.1018 17.464 27.703 17.1653 26.1802C16.8666 24.6573 17.0199 23.0788 17.6057 21.6443C18.1917 20.2096 19.1841 18.9833 20.4572 18.1206C21.7303 17.2579 23.2269 16.7969 24.7579 16.7968ZM21.9162 24.2014C21.6125 24.2014 21.3664 24.4459 21.3664 24.7478C21.3667 25.0494 21.6126 25.2941 21.9162 25.2942H27.9161C28.2197 25.2942 28.4656 25.0494 28.4659 24.7478C28.4659 24.4459 28.2198 24.2014 27.9161 24.2014H21.9162Z" fill="#FFA640"/>
</svg>
